<?xml version="1.0" encoding="UTF-8"?>
<svg version="1.1" xmlns="http://www.w3.org/2000/svg" width="1024" height="1024">
<path d="M0 0 C0.33 0.33 0.66 0.66 1 1 C3.97 1 6.94 1 10 1 C10 19.48 10 37.96 10 57 C0.96625 57.8353125 0.96625 57.8353125 -8.25 58.6875 C-57.30656285 63.49980979 -108.49541807 74.85531832 -152.86572266 96.94238281 C-155.4161873 98.20623695 -157.97995732 99.44148026 -160.54296875 100.6796875 C-180.12219664 110.21601974 -198.50914433 121.01509884 -216 134 C-216.60505371 134.44666016 -217.21010742 134.89332031 -217.83349609 135.35351562 C-225.07070441 140.73804648 -231.83878321 146.53781058 -238.4375 152.6875 C-239.4131189 153.59592651 -239.4131189 153.59592651 -240.40844727 154.52270508 C-244.89953136 158.78066596 -248.98461516 163.2948482 -253 168 C-253.80824219 168.91523438 -254.61648438 169.83046875 -255.44921875 170.7734375 C-272.54842878 190.64791199 -284.53898282 212.92541098 -292 238 C-292.33 238 -292.66 238 -293 238 C-292.51010416 229.28164774 -290.8469138 221.04093984 -288.8125 212.5625 C-288.57716049 211.57514359 -288.57716049 211.57514359 -288.33706665 210.56784058 C-274.08690764 150.91012014 -241.13629759 94.65946297 -191 58 C-190.04738281 57.28714844 -189.09476562 56.57429688 -188.11328125 55.83984375 C-175.06111903 46.17640268 -161.35480362 37.38756541 -147.125 29.5625 C-146.21560669 29.04913086 -146.21560669 29.04913086 -145.2878418 28.52539062 C-141.09743074 26.26782175 -137.66293836 25.42336141 -133 25 C-132.01 23.515 -132.01 23.515 -131 22 C-130.34 22 -129.68 22 -129 22 C-129 22.99 -129 23.98 -129 25 C-128.34 25 -127.68 25 -127 25 C-127 24.34 -127 23.68 -127 23 C-125.35 22.67 -123.7 22.34 -122 22 C-122 21.34 -122 20.68 -122 20 C-120.35 20.33 -118.7 20.66 -117 21 C-117 20.34 -117 19.68 -117 19 C-111.26984328 18.2359791 -105.78438528 18 -100 18 C-99.67 16.68 -99.34 15.36 -99 14 C-97.68 13.67 -96.36 13.34 -95 13 C-95.33 14.65 -95.66 16.3 -96 18 C-95.67 18.33 -95.34 18.66 -95 19 C-94.67 17.02 -94.34 15.04 -94 13 C-93.01 12.67 -92.02 12.34 -91 12 C-90.01 14.475 -90.01 14.475 -89 17 C-88.01 16.34 -87.02 15.68 -86 15 C-85.01 15 -84.02 15 -83 15 C-82.67 13.35 -82.34 11.7 -82 10 C-80.67476417 10.66261791 -79.36163673 11.35007018 -78.0625 12.0625 C-75.92241195 13.20690147 -75.92241195 13.20690147 -73 13 C-73 12.34 -73 11.68 -73 11 C-69.535 10.505 -69.535 10.505 -66 10 C-66 10.99 -66 11.98 -66 13 C-65.01 13.495 -65.01 13.495 -64 14 C-63.67 13.34 -63.34 12.68 -63 12 C-60.03 12.33 -57.06 12.66 -54 13 C-53.67 12.01 -53.34 11.02 -53 10 C-52.01 11.98 -52.01 11.98 -51 14 C-50.67 12.68 -50.34 11.36 -50 10 C-46.535 9.505 -46.535 9.505 -43 9 C-43 8.01 -43 7.02 -43 6 C-41.02 5.67 -39.04 5.34 -37 5 C-37 5.99 -37 6.98 -37 8 C-36.01 8 -35.02 8 -34 8 C-34 8.66 -34 9.32 -34 10 C-32.02 9.01 -30.04 8.02 -28 7 C-28 6.01 -28 5.02 -28 4 C-26.35 3.67 -24.7 3.34 -23 3 C-23 2.34 -23 1.68 -23 1 C-22.484375 1.20625 -21.96875 1.4125 -21.4375 1.625 C-18.62782674 2.05725742 -16.87051593 1.34632248 -14.21484375 0.48046875 C-9.56772723 -0.52763589 -4.72973712 -0.13979519 0 0 Z M-19 4 C-17.35 4 -15.7 4 -14 4 C-13.67 3.34 -13.34 2.68 -13 2 C-15.46278801 2 -16.85224119 2.85452863 -19 4 Z M-26 5 C-25.67 5.99 -25.34 6.98 -25 8 C-25 7.01 -25 6.02 -25 5 C-25.33 5 -25.66 5 -26 5 Z M-41 7 C-40.34 7.66 -39.68 8.32 -39 9 C-39 8.34 -39 7.68 -39 7 C-39.66 7 -40.32 7 -41 7 Z M-15 8 C-14 10 -14 10 -14 10 Z M-46 10 C-46.66 10.66 -47.32 11.32 -48 12 C-47.01 12.33 -46.02 12.66 -45 13 C-44.67 12.01 -44.34 11.02 -44 10 C-44.66 10 -45.32 10 -46 10 Z M-39 11 C-38 13 -38 13 -38 13 Z M-43 12 C-42.01 12.99 -41.02 13.98 -40 15 C-40.33 14.01 -40.66 13.02 -41 12 C-41.66 12 -42.32 12 -43 12 Z M-82 13 C-80.02 13.99 -80.02 13.99 -78 15 C-78.33 14.34 -78.66 13.68 -79 13 C-79.99 13 -80.98 13 -82 13 Z M-72 13 C-72.99 13.33 -73.98 13.66 -75 14 C-74.34 15.32 -73.68 16.64 -73 18 C-72.01 17.01 -71.02 16.02 -70 15 C-70.66 14.34 -71.32 13.68 -72 13 Z M-69 14 C-68.67 14.66 -68.34 15.32 -68 16 C-67.34 15.34 -66.68 14.68 -66 14 C-66.99 14 -67.98 14 -69 14 Z M-64 14 C-63.34 14.66 -62.68 15.32 -62 16 C-61.67 15.34 -61.34 14.68 -61 14 C-61.99 14 -62.98 14 -64 14 Z M-57 15 C-57.33 15.99 -57.66 16.98 -58 18 C-57.34 18 -56.68 18 -56 18 C-56.33 17.01 -56.66 16.02 -57 15 Z M-83 16 C-83.33 17.32 -83.66 18.64 -84 20 C-83.34 19.67 -82.68 19.34 -82 19 C-82.33 18.01 -82.66 17.02 -83 16 Z M-76 16 C-75 18 -75 18 -75 18 Z M-78 18 C-77.67 18.66 -77.34 19.32 -77 20 C-76.67 19.34 -76.34 18.68 -76 18 C-76.66 18 -77.32 18 -78 18 Z M-55 18 C-54 20 -54 20 -54 20 Z M-108 19 C-107.34 19.66 -106.68 20.32 -106 21 C-106 20.34 -106 19.68 -106 19 C-106.66 19 -107.32 19 -108 19 Z M-103 19 C-101.515 19.99 -101.515 19.99 -100 21 C-100 20.34 -100 19.68 -100 19 C-100.99 19 -101.98 19 -103 19 Z M-91 19 C-90.67 19.66 -90.34 20.32 -90 21 C-89.34 21 -88.68 21 -88 21 C-88 20.34 -88 19.68 -88 19 C-88.99 19 -89.98 19 -91 19 Z M-76 20 C-76 23 -76 23 -76 23 Z M-103 21 C-102 23 -102 23 -102 23 Z M-82 23 C-81 25 -81 25 -81 25 Z M-65 23 C-65.33 23.66 -65.66 24.32 -66 25 C-65.34 25 -64.68 25 -64 25 C-64.33 24.34 -64.66 23.68 -65 23 Z M-73 24 C-72 26 -72 26 -72 26 Z M-125 24 C-125.66 24.66 -126.32 25.32 -127 26 C-126.01 26 -125.02 26 -124 26 C-124.33 25.34 -124.66 24.68 -125 24 Z M-140 27 C-140 27.66 -140 28.32 -140 29 C-139.34 28.67 -138.68 28.34 -138 28 C-138.66 27.67 -139.32 27.34 -140 27 Z M-134 27 C-133.67 27.66 -133.34 28.32 -133 29 C-132.67 28.34 -132.34 27.68 -132 27 C-132.66 27 -133.32 27 -134 27 Z M-142 28 C-141 30 -141 30 -141 30 Z " fill="#000000" transform="translate(548,212)"/>
<path d="M0 0 C0.54027832 0.42748535 1.08055664 0.8549707 1.63720703 1.29541016 C10.35450693 8.26666717 18.22941381 16.00049311 26 24 C26 24.66 26 25.32 26 26 C26.66 26 27.32 26 28 26 C29.43852875 27.74915445 30.87578198 29.49935795 32.3125 31.25 C33.11300781 32.22453125 33.91351562 33.1990625 34.73828125 34.203125 C36.54442258 36.4366262 38.29819915 38.68687263 40 41 C39.67 41.66 39.34 42.32 39 43 C38.33355469 42.55269531 37.66710937 42.10539062 36.98046875 41.64453125 C-0.13927747 17.29605436 -48.45896128 15.9233556 -90.69726562 24.6940918 C-100.84086661 26.93222257 -110.46514492 29.88452837 -120 34 C-121.1653125 34.50015625 -122.330625 35.0003125 -123.53125 35.515625 C-149.56908827 47.59624366 -167.3908649 68.66510832 -178 95 C-186.18471483 117.73706449 -184.14179913 142.87038061 -184.16866493 166.67934036 C-184.17469737 171.5845498 -184.19134349 176.48969128 -184.21000671 181.39486694 C-184.21633992 183.09027288 -184.22266559 184.78567884 -184.22898388 186.48108482 C-184.23214969 187.32873807 -184.2353155 188.17639131 -184.23857725 189.04973102 C-184.2802914 200.42832521 -184.31364279 211.80688101 -184.32592773 223.18554688 C-184.33436269 230.92011999 -184.35703303 238.65451653 -184.3952834 246.38900125 C-184.41482552 250.45715511 -184.42752193 254.52504656 -184.42244911 258.59325027 C-184.38892618 291.97641091 -188.28071104 320.45201961 -211.85546875 345.88671875 C-230.60034294 364.35844359 -254.79036558 374.68541019 -281 376 C-282.04800781 376.061875 -282.04800781 376.061875 -283.1171875 376.125 C-311.79511438 376.99074874 -340.75368703 364.79717026 -362 346 C-362.97710937 345.16726563 -363.95421875 344.33453125 -364.9609375 343.4765625 C-392.82691243 319.32335723 -408.92639543 282.87718964 -411.625 246.5 C-412.13120875 233.67604499 -412 220.83394209 -412 208 C-387.25 208 -362.5 208 -337 208 C-336.6875 229.5 -336.6875 229.5 -336.61206055 236.17773438 C-336.31091111 257.47113808 -336.31091111 257.47113808 -329.375 277.375 C-329.02872559 278.03290527 -328.68245117 278.69081055 -328.32568359 279.36865234 C-322.96354209 289.15006214 -316.01667761 296.05712968 -306 301 C-305.35546875 301.32742188 -304.7109375 301.65484375 -304.046875 301.9921875 C-294.18231809 306.3441979 -282.90800686 305.79366882 -273 302 C-263.69158947 297.45470749 -257.86316472 289.80906562 -253.82421875 280.43359375 C-251.7841413 274.41004754 -250.66020884 268.60964593 -250.38818359 262.26391602 C-250.35066168 261.46917405 -250.31313976 260.67443209 -250.27448082 259.85560703 C-249.73298424 246.55233587 -249.8277552 233.22203929 -249.80076981 219.90995598 C-249.78991777 214.68209013 -249.76963491 209.45428509 -249.74765015 204.22645569 C-249.68628208 189.3755267 -249.63174774 174.52460515 -249.59863281 159.67358398 C-249.58019023 151.43770428 -249.5511492 143.2019308 -249.5106281 134.96612936 C-249.48974685 130.62864258 -249.47412776 126.29128836 -249.47182083 121.9537487 C-249.43995755 75.66138631 -239.54556507 38.8660286 -206.5 5.1875 C-201.08921649 -0.19939485 -195.36962699 -4.77245498 -189 -9 C-188.22269531 -9.556875 -187.44539062 -10.11375 -186.64453125 -10.6875 C-131.39095509 -48.63590207 -51.32715181 -40.82591523 0 0 Z " fill="#000000" transform="translate(678,327)"/>
<path d="M0 0 C1.70131494 1.68674265 3.33198873 3.41662021 4.94921875 5.18359375 C5.77421875 5.98796875 6.59921875 6.79234375 7.44921875 7.62109375 C28.52256966 29.22127843 33.53504659 54.73242782 33.30078125 83.95214844 C33.15703199 94.58764727 32.40305306 104.8170808 29.94921875 115.18359375 C29.75054199 116.04952148 29.55186523 116.91544922 29.34716797 117.80761719 C26.26328395 130.93318197 22.03490872 143.15211474 15.94921875 155.18359375 C15.6052002 155.86615234 15.26118164 156.54871094 14.90673828 157.25195312 C5.96038973 174.68586312 -6.24770471 189.38051721 -20.05078125 203.18359375 C-20.69917969 203.87839844 -21.34757813 204.57320312 -22.015625 205.2890625 C-42.0185991 226.40111239 -71.40515677 239.78310314 -99.05078125 247.18359375 C-99.88287109 247.40950195 -100.71496094 247.63541016 -101.57226562 247.86816406 C-114.3508128 251.16667089 -127.05618062 251.54453998 -140.17578125 251.55859375 C-140.97251251 251.56067841 -141.76924377 251.56276306 -142.59011841 251.56491089 C-144.91330429 251.56422202 -147.23556689 251.54580632 -149.55859375 251.51953125 C-150.23616226 251.51710922 -150.91373077 251.51468719 -151.61183167 251.51219177 C-158.02532815 251.39187029 -163.51118782 250.27352599 -170.05078125 249.18359375 C-170.05078125 294.72359375 -170.05078125 340.26359375 -170.05078125 387.18359375 C-193.15078125 387.18359375 -216.25078125 387.18359375 -240.05078125 387.18359375 C-240.38078125 386.85359375 -240.71078125 386.52359375 -241.05078125 386.18359375 C-241.05078125 349.88359375 -241.05078125 313.58359375 -241.05078125 276.18359375 C-236.76078125 271.89359375 -232.47078125 267.60359375 -228.05078125 263.18359375 C-214.03261106 243.6646226 -210.07258064 224.70112544 -209.734375 200.95703125 C-209.7135939 199.72820221 -209.69281281 198.49937317 -209.67140198 197.23330688 C-209.60647675 193.3417879 -209.54728887 189.45020651 -209.48828125 185.55859375 C-209.44504169 182.90624377 -209.40142575 180.25389991 -209.35742188 177.6015625 C-209.25085452 171.12897053 -209.14898657 164.65631771 -209.05078125 158.18359375 C-208.14662979 157.63166603 -208.14662979 157.63166603 -207.22421265 157.06858826 C-204.46349434 155.38032309 -201.70634704 153.68630869 -198.94921875 151.9921875 C-197.5269397 151.12418518 -197.5269397 151.12418518 -196.07592773 150.23864746 C-189.22686549 146.02235164 -183.05745629 141.54170753 -177.05078125 136.18359375 C-174.74078125 134.20359375 -172.43078125 132.22359375 -170.05078125 130.18359375 C-169.72078125 144.70359375 -169.39078125 159.22359375 -169.05078125 174.18359375 C-157.93469673 175.95913302 -157.93469673 175.95913302 -146.86328125 176.49609375 C-146.0643042 176.4904541 -145.26532715 176.48481445 -144.44213867 176.47900391 C-116.71109678 175.92868752 -92.31546485 164.71045424 -72.23828125 145.74609375 C-50.08129851 122.1452976 -42.92944196 93.8679948 -43.90283203 62.16259766 C-45.04046664 39.25596819 -54.94219818 17.28928837 -70.05078125 0.18359375 C-70.80617188 -0.69167969 -71.5615625 -1.56695312 -72.33984375 -2.46875 C-79.11648989 -10.60414267 -79.11648989 -10.60414267 -88.05078125 -15.81640625 C-88.2209375 -13.84800781 -88.2209375 -13.84800781 -88.39453125 -11.83984375 C-88.92252095 -7.14476864 -90.02139743 -2.90092741 -91.55078125 1.55859375 C-91.94281738 2.70980713 -91.94281738 2.70980713 -92.34277344 3.88427734 C-99.23532205 23.44753528 -109.33806766 41.59542911 -123.05078125 57.18359375 C-124.09298828 58.39015625 -124.09298828 58.39015625 -125.15625 59.62109375 C-134.64407331 70.40506779 -144.73984264 80.32413429 -156.05078125 89.18359375 C-157.0953619 90.03970368 -158.13826339 90.89786554 -159.1796875 91.7578125 C-196.38563294 122.18359375 -196.38563294 122.18359375 -209.05078125 122.18359375 C-209.23701165 111.71694915 -209.37872541 101.25070541 -209.46527863 90.78273487 C-209.50684305 85.92071891 -209.56312137 81.0598451 -209.65429688 76.19848633 C-209.74190175 71.49751938 -209.78919596 66.79764337 -209.80979919 62.09592247 C-209.82446086 60.31182387 -209.85309009 58.52777786 -209.8966217 56.74415016 C-210.18337617 44.49592318 -208.73822223 36.9616088 -201.05078125 27.18359375 C-200.32973206 26.19394875 -200.32973206 26.19394875 -199.59411621 25.18431091 C-194.79224996 18.75045067 -189.26450292 13.22206095 -183.05078125 8.18359375 C-182.30054688 7.51199219 -181.5503125 6.84039062 -180.77734375 6.1484375 C-135.55052446 -33.30326487 -46.96652962 -41.59892623 0 0 Z " fill="#000000" transform="translate(728.05078125,419.81640625)"/>
</svg>
