<?xml version="1.0" standalone="no"?>
<!DOCTYPE svg PUBLIC "-//W3C//DTD SVG 20010904//EN"
 "http://www.w3.org/TR/2001/REC-SVG-20010904/DTD/svg10.dtd">
<svg version="1.0" xmlns="http://www.w3.org/2000/svg"
 width="1024.000000pt" height="1024.000000pt" viewBox="0 0 1024.000000 1024.000000"
 preserveAspectRatio="xMidYMid meet">

<g transform="translate(0.000000,1024.000000) scale(0.100000,-0.100000)"
fill="#000000" stroke="none">
<path d="M5206 8121 c-4 -6 -1 -11 6 -12 7 0 2 -4 -10 -10 -13 -5 -28 -7 -33
-3 -5 3 -9 0 -9 -5 0 -6 7 -11 16 -11 21 0 12 -23 -10 -26 -10 -1 -23 -7 -29
-13 -16 -16 -42 -14 -30 2 14 18 10 40 -7 44 -13 4 -13 3 0 -6 13 -9 13 -11
-2 -11 -9 0 -20 -5 -24 -12 -5 -7 -2 -9 9 -5 11 4 14 2 10 -9 -5 -13 -8 -13
-23 1 -9 8 -20 12 -25 8 -4 -5 -5 -2 -1 5 9 14 -10 17 -19 2 -4 -6 -11 -7 -17
-4 -7 4 -8 2 -4 -5 4 -6 11 -9 16 -6 12 8 41 -6 34 -16 -3 -5 0 -10 5 -10 6
-1 16 -2 23 -3 6 0 12 -7 14 -14 1 -7 0 -8 -3 -2 -8 17 -23 1 -16 -18 6 -14 4
-15 -9 -5 -8 7 -17 12 -19 10 -2 -1 1 3 8 9 20 18 -28 39 -55 25 -14 -7 -23
-8 -27 -1 -3 5 0 10 7 10 8 0 5 5 -5 11 -14 8 -22 8 -30 -1 -9 -8 -8 -10 6 -4
10 3 17 3 16 -2 -6 -33 2 -53 19 -48 13 5 14 4 3 -4 -18 -13 -41 -4 -35 13 3
7 1 16 -5 20 -6 3 -11 0 -11 -8 0 -19 -29 -30 -45 -17 -7 6 -19 9 -26 7 -8 -2
-11 -2 -6 0 4 3 5 8 3 12 -3 4 5 7 17 6 12 -2 21 -8 20 -14 -3 -13 13 -15 21
-2 3 5 -2 12 -11 15 -14 6 -14 8 3 22 16 13 14 13 -13 -1 -18 -8 -33 -11 -33
-6 0 6 -10 15 -22 21 -21 10 -22 10 -5 -4 15 -11 16 -18 8 -35 -15 -26 -14
-31 5 -31 8 0 12 -5 9 -10 -5 -8 -11 -7 -20 0 -10 8 -19 8 -34 0 -14 -7 -21
-7 -21 0 0 5 8 10 18 10 14 0 15 2 2 10 -13 8 -13 10 1 10 9 0 20 8 24 18 5
14 4 15 -6 5 -7 -7 -21 -13 -32 -13 -12 0 -16 4 -11 13 7 11 -25 -10 -36 -25
-14 -18 -86 -6 -75 13 4 5 1 9 -4 9 -6 0 -11 -4 -11 -10 0 -5 -6 -8 -12 -6 -7
1 -10 1 -5 -1 12 -8 8 -33 -7 -33 -7 0 -19 -6 -26 -14 -11 -14 -40 -12 -38 2
3 27 -4 41 -17 36 -18 -7 -20 -30 -2 -37 10 -4 10 -6 0 -6 -7 -1 -13 -8 -13
-17 0 -14 -3 -14 -15 -4 -11 9 -13 16 -5 24 20 20 10 31 -28 31 -20 0 -39 3
-42 7 -3 4 -12 3 -20 -2 -13 -8 -12 -10 3 -10 9 0 17 -5 17 -11 0 -5 -3 -8 -8
-5 -4 2 -16 -3 -27 -11 -14 -11 -16 -17 -7 -20 6 -3 12 -9 12 -14 0 -6 -17 3
-37 18 -20 15 -34 22 -29 16 4 -8 2 -13 -4 -13 -6 0 -8 -5 -4 -11 4 -7 0 -9
-14 -5 -12 4 -23 2 -28 -5 -5 -8 -3 -9 7 -4 12 8 12 6 0 -8 -15 -19 -26 -23
-15 -5 5 8 2 9 -10 5 -9 -4 -15 -3 -12 2 3 5 -1 11 -9 14 -9 4 -12 1 -9 -8 8
-19 -36 -31 -47 -14 -5 8 -9 10 -9 4 0 -19 18 -38 29 -31 6 4 11 2 11 -3 0
-12 -11 -14 -34 -5 -9 3 -16 12 -16 20 0 21 -21 17 -27 -5 -3 -13 -11 -17 -25
-13 -25 6 -230 -97 -221 -112 3 -6 3 -8 -2 -4 -12 11 -35 -3 -298 -182 -73
-49 -237 -193 -327 -286 -183 -190 -311 -364 -434 -589 -130 -238 -203 -441
-271 -755 -49 -229 -49 -248 -2 -110 142 416 478 805 949 1100 174 109 495
266 685 336 423 155 863 253 1261 280 l102 7 0 279 0 280 -50 -4 c-28 -1 -50
0 -50 5 0 12 -28 8 -33 -5 -4 -10 -6 -10 -6 0 -1 6 -9 12 -19 12 -10 0 -24 -6
-31 -12 -9 -8 -11 -9 -7 -2 4 8 -6 12 -33 10 -21 0 -37 -4 -34 -8 2 -5 -3 -8
-11 -8 -9 0 -16 4 -16 9 0 5 -11 8 -24 7 -13 0 -22 -6 -19 -12 5 -14 -44 -37
-52 -24 -4 6 1 10 9 10 19 0 27 13 17 29 -6 9 -11 10 -15 2z m121 -26 c22 5
25 4 16 -6 -14 -14 -87 -3 -77 12 4 6 11 6 20 -2 8 -6 25 -8 41 -4z m-87 -47
c0 -6 -3 -9 -6 -5 -3 3 -24 -1 -46 -9 -47 -16 -48 -16 -48 -6 0 4 10 9 22 9
13 1 24 7 26 12 2 5 10 7 18 4 8 -3 14 0 14 7 0 6 5 8 10 5 6 -3 10 -11 10
-17z m64 14 c2 -4 -4 -8 -14 -8 -10 0 -16 4 -14 8 3 4 9 8 14 8 5 0 11 -4 14
-8z m-264 -50 c0 -15 -11 -21 -27 -15 -12 5 -12 7 -1 14 17 11 28 11 28 1z
m111 -19 c13 -16 12 -17 -3 -4 -10 7 -18 15 -18 17 0 8 8 3 21 -13z m-367 -1
c-6 -4 -10 -17 -9 -28 1 -22 -17 -27 -32 -9 -4 4 -2 5 6 0 10 -6 12 -4 6 5 -5
9 -14 4 -31 -16 -13 -16 -23 -23 -24 -16 0 6 5 12 10 12 6 0 10 5 10 11 0 6
-7 8 -16 5 -8 -3 -12 -2 -9 4 3 6 3 10 -2 10 -14 0 -29 -14 -37 -35 -6 -15
-10 -17 -14 -6 -2 8 5 22 17 32 15 12 17 19 9 22 -9 4 -8 6 2 6 8 0 24 -6 34
-14 11 -8 22 -12 25 -7 8 10 44 31 56 31 6 1 5 -2 -1 -7z m-284 -22 c13 -8 12
-10 -2 -10 -10 0 -18 -4 -18 -10 0 -5 -9 -10 -20 -10 -11 0 -20 -4 -20 -9 0
-5 9 -7 20 -4 11 3 20 0 20 -6 0 -5 -7 -8 -15 -5 -11 4 -13 2 -9 -9 3 -8 0
-18 -7 -23 -8 -4 -10 -3 -5 4 4 6 -1 23 -10 37 -16 25 -16 25 10 25 18 0 24 4
20 15 -7 17 13 20 36 5z m413 -3 c4 3 7 -1 7 -9 0 -9 -7 -18 -14 -21 -11 -4
-13 -1 -9 10 4 10 2 14 -4 10 -5 -3 -10 0 -10 8 0 10 4 12 12 5 7 -5 15 -7 18
-3z m221 5 c3 -5 -1 -9 -9 -9 -8 0 -12 4 -9 9 3 4 7 8 9 8 2 0 6 -4 9 -8z
m-147 -39 c-4 -3 -1 -13 6 -22 11 -14 10 -14 -5 -2 -16 12 -16 31 -1 31 4 0 3
-3 0 -7z m-387 -14 c0 -8 6 -7 18 2 15 13 16 12 3 -4 -9 -12 -17 -14 -26 -7
-6 5 -15 7 -18 3 -4 -3 -7 -1 -7 5 0 7 7 12 15 12 8 0 15 -5 15 -11z m122 -21
c-7 -7 -12 -8 -12 -2 0 14 12 26 19 19 2 -3 -1 -11 -7 -17z m-367 3 c-9 -8
-36 -10 -30 -2 2 4 11 8 20 8 8 0 13 -3 10 -6z m170 -1 c3 -6 -1 -7 -9 -4 -18
7 -21 14 -7 14 6 0 13 -4 16 -10z m235 6 c0 -2 -8 -10 -17 -17 -16 -13 -17
-12 -4 4 13 16 21 21 21 13z m-87 -21 c-3 -9 -8 -14 -10 -11 -3 3 -2 9 2 15 9
16 15 13 8 -4z m-388 -16 c-4 -5 -12 -9 -18 -8 -9 0 -8 2 1 6 6 2 9 10 6 15
-4 7 -2 8 5 4 6 -4 9 -12 6 -17z m555 12 c0 -5 -7 -12 -16 -15 -14 -5 -15 -4
-4 9 14 17 20 19 20 6z m-745 -41 c3 -5 1 -10 -4 -10 -6 0 -11 5 -11 10 0 6 2
10 4 10 3 0 8 -4 11 -10z m65 6 c0 -3 -4 -8 -10 -11 -5 -3 -10 -1 -10 4 0 6 5
11 10 11 6 0 10 -2 10 -4z m-99 -29 c-10 -9 -11 -8 -5 6 3 10 9 15 12 12 3 -3
0 -11 -7 -18z"/>
<path d="M5050 8116 c0 -2 9 -6 20 -9 11 -3 18 -1 14 4 -5 9 -34 13 -34 5z"/>
<path d="M4964 8088 l-19 -23 25 20 c14 11 27 21 29 22 2 2 0 3 -6 3 -5 0 -18
-10 -29 -22z"/>
<path d="M5120 8101 c0 -5 7 -12 16 -15 14 -5 15 -4 4 9 -14 17 -20 19 -20 6z"/>
<path d="M4989 8073 c-13 -16 -12 -17 4 -4 9 7 17 15 17 17 0 8 -8 3 -21 -13z"/>
<path d="M5050 8081 c0 -6 5 -13 10 -16 6 -3 10 1 10 9 0 9 -4 16 -10 16 -5 0
-10 -4 -10 -9z"/>
<path d="M4578 8033 c7 -3 16 -2 19 1 4 3 -2 6 -13 5 -11 0 -14 -3 -6 -6z"/>
<path d="M4540 8021 c0 -5 -8 -7 -19 -4 -22 6 -37 -12 -20 -23 8 -5 9 -3 4 6
-6 10 -2 11 19 6 19 -5 26 -3 26 9 0 8 -2 15 -5 15 -3 0 -5 -4 -5 -9z"/>
<path d="M4596 8005 c4 -8 1 -15 -5 -15 -6 0 -11 -5 -11 -11 0 -5 5 -7 12 -3
8 5 9 2 5 -10 -6 -15 -5 -15 17 1 17 13 20 19 10 21 -8 2 -14 10 -14 18 0 8
-4 14 -10 14 -5 0 -7 -7 -4 -15z"/>
<path d="M4710 8008 c0 -4 7 -8 15 -8 8 0 15 4 15 8 0 5 -7 9 -15 9 -8 0 -15
-4 -15 -9z"/>
<path d="M4386 7977 c-16 -12 -16 -14 -3 -14 9 0 18 6 21 14 3 7 4 13 3 13 -2
0 -11 -6 -21 -13z"/>
<path d="M4308 7953 c-10 -2 -18 -9 -18 -14 0 -6 10 -5 23 2 37 20 36 23 -5
12z"/>
<path d="M5645 7314 c-428 -36 -803 -227 -1049 -534 -143 -179 -221 -334 -274
-550 l-25 -105 -7 -920 c-7 -825 -9 -926 -25 -979 -25 -88 -61 -153 -114 -206
-60 -60 -110 -86 -193 -100 -181 -32 -378 81 -473 271 -61 121 -67 157 -72
442 l-5 257 -376 0 -375 0 7 -217 c7 -254 16 -320 57 -463 109 -379 361 -696
686 -862 177 -91 335 -131 523 -130 251 0 472 79 657 235 123 104 213 228 272
375 67 167 63 120 71 1087 8 949 8 949 63 1095 64 170 146 298 259 406 209
199 464 303 855 349 151 18 229 19 378 5 270 -26 511 -102 660 -208 l49 -35
-18 29 c-70 108 -313 352 -446 446 -109 78 -338 194 -455 232 -87 28 -230 60
-310 70 -66 8 -270 14 -320 10z"/>
<path d="M6232 6290 c-110 -14 -316 -67 -412 -107 -241 -98 -476 -291 -591
-484 l-39 -65 0 -408 0 -408 108 57 c320 169 651 449 834 706 88 122 199 346
238 478 16 57 30 112 30 122 0 36 30 19 117 -69 89 -88 177 -208 231 -317 139
-280 136 -669 -8 -955 -121 -241 -341 -431 -599 -519 -134 -46 -331 -62 -481
-38 l-75 12 -3 223 -2 224 -65 -61 c-68 -63 -134 -111 -251 -180 l-72 -42 -5
-322 c-5 -352 -11 -396 -67 -530 -39 -95 -93 -173 -181 -262 l-69 -71 2 -549
3 -550 353 -3 352 -2 0 691 0 691 23 -6 c46 -15 408 -19 496 -7 346 50 691
208 931 428 385 353 580 782 580 1279 0 215 -27 347 -101 498 -49 99 -81 143
-172 234 -145 148 -342 247 -587 297 -90 19 -413 28 -518 15z"/>
</g>
</svg>
