<?xml version="1.0" encoding="UTF-8"?>
<svg version="1.1" xmlns="http://www.w3.org/2000/svg" width="1024" height="1024">
<path d="M0,0 L1024,0 L1024,1024 L0,1024 Z " fill="#F9F9F9" transform="translate(0,0)"/>
<path d="M0,0 L36,0 L59,5 L76,11 L91,19 L101,27 L108,33 L119,47 L127,63 L131,75 L133,89 L133,123 L131,135 L127,154 L119,175 L109,194 L99,208 L88,221 L84,226 L76,233 L66,242 L49,253 L28,264 L11,270 L-8,275 L-20,277 L-58,277 L-68,276 L-70,275 L-70,413 L-141,413 L-141,302 L-128,289 L-119,275 L-113,260 L-111,250 L-110,239 L-109,184 L-88,171 L-77,162 L-70,156 L-70,201 L-63,201 L-58,202 L-38,202 L-20,199 L-5,194 L10,186 L24,175 L31,168 L42,153 L50,136 L55,118 L56,108 L56,83 L53,67 L47,52 L38,36 L30,26 L21,16 L15,11 L12,10 L11,20 L3,42 L-9,65 L-22,82 L-31,92 L-37,99 L-39,99 L-39,101 L-45,106 L-47,106 L-47,108 L-58,117 L-76,130 L-91,139 L-106,147 L-109,147 L-109,66 L-101,53 L-91,41 L-89,41 L-89,39 L-81,32 L-69,23 L-53,14 L-38,8 L-24,4 Z " fill="#202020" transform="translate(628,394)"/>
<path d="M0,0 L22,0 L42,2 L59,6 L74,11 L97,22 L115,34 L128,45 L144,61 L153,72 L157,77 L156,79 L146,72 L135,67 L118,61 L100,57 L80,55 L56,55 L34,58 L20,61 L3,66 L-18,76 L-31,86 L-41,95 L-50,106 L-61,127 L-66,144 L-68,161 L-69,325 L-72,339 L-78,355 L-84,366 L-92,376 L-99,384 L-109,392 L-122,400 L-137,406 L-152,410 L-186,410 L-205,405 L-222,398 L-236,389 L-250,378 L-258,370 L-269,356 L-280,338 L-287,322 L-292,305 L-295,290 L-296,276 L-296,243 L-221,243 L-220,291 L-216,306 L-209,320 L-200,330 L-190,336 L-183,339 L-162,339 L-152,334 L-146,329 L-139,318 L-135,305 L-134,295 L-133,123 L-128,99 L-121,81 L-113,67 L-100,50 L-93,43 L-88,38 L-78,29 L-64,20 L-48,12 L-32,6 L-16,2 Z " fill="#232323" transform="translate(562,292)"/>
<path d="M0,0 L16,0 L41,2 L42,3 L42,59 L10,62 L-9,65 L-30,69 L-45,73 L-60,77 L-80,83 L-99,90 L-116,97 L-143,110 L-162,121 L-177,131 L-194,144 L-205,154 L-212,160 L-219,168 L-230,181 L-241,197 L-250,213 L-256,227 L-261,243 L-262,243 L-261,234 L-255,205 L-248,182 L-240,162 L-230,142 L-219,124 L-206,106 L-193,91 L-183,80 L-175,73 L-165,64 L-149,52 L-131,40 L-114,30 L-89,19 L-69,12 L-52,7 L-26,2 Z " fill="#666665" transform="translate(516,210)"/>
<path d="M0,0 L22,0 L42,2 L59,6 L74,11 L97,22 L115,34 L128,45 L144,61 L153,72 L157,77 L156,79 L146,72 L135,67 L118,61 L100,57 L80,55 L56,55 L34,58 L20,61 L3,66 L-15,74 L-15,70 L-11,70 L-11,67 L-8,64 L-7,59 L-12,60 L-14,60 L-15,65 L-19,67 L-22,65 L-22,66 L-27,66 L-31,63 L-40,67 L-43,68 L-45,66 L-47,64 L-44,62 L-44,59 L-40,58 L-42,56 L-45,57 L-44,53 L-48,52 L-50,56 L-53,55 L-55,59 L-55,57 L-59,59 L-62,62 L-64,62 L-64,65 L-69,69 L-68,61 L-73,66 L-75,66 L-74,70 L-75,72 L-83,76 L-84,80 L-89,81 L-89,79 L-94,81 L-96,85 L-98,89 L-101,89 L-102,91 L-107,89 L-108,93 L-115,94 L-116,91 L-119,89 L-120,92 L-122,94 L-121,98 L-117,97 L-119,104 L-123,105 L-127,106 L-129,107 L-128,99 L-121,81 L-113,67 L-100,50 L-93,43 L-88,38 L-78,29 L-64,20 L-48,12 L-32,6 L-16,2 Z M-12,57 Z M-31,60 L-30,62 Z M-29,62 Z M-7,62 Z M-125,103 Z M-45,68 L-43,68 L-43,71 L-45,71 Z " fill="#424242" transform="translate(562,292)"/>
<path d="M0,0 L1,3 L4,2 L6,4 L9,4 L13,0 L15,4 L16,6 L25,8 L27,6 L25,3 L35,5 L35,7 L37,8 L32,10 L29,10 L28,15 L13,21 L0,26 L-29,40 L-48,51 L-63,61 L-80,74 L-91,84 L-98,90 L-105,98 L-116,111 L-127,127 L-136,143 L-142,157 L-147,173 L-148,173 L-147,164 L-141,135 L-134,112 L-126,92 L-116,72 L-105,54 L-92,36 L-79,21 L-69,12 L-67,12 L-67,14 L-65,14 L-64,11 L-64,8 L-62,7 L-62,9 L-57,8 L-55,4 L-53,4 L-52,1 L-52,3 L-50,3 L-50,5 L-48,6 L-44,9 L-44,13 L-37,12 L-37,15 L-30,13 L-23,15 L-23,11 L-21,9 L-17,8 L-17,13 L-14,13 L-14,10 L-10,9 L-9,12 L-8,7 L-6,5 L-8,2 L-6,1 L-4,2 L-4,4 L-2,4 Z M2,5 L3,7 Z M36,4 L40,6 L37,7 Z " fill="#414141" transform="translate(402,280)"/>
<path d="M0,0 L7,1 L13,2 L32,11 L50,23 L63,34 L79,50 L88,61 L92,66 L91,68 L81,61 L70,56 L53,50 L35,46 L15,44 L-9,44 L-31,47 L-45,50 L-62,55 L-80,63 L-80,59 L-76,59 L-76,56 L-73,53 L-72,48 L-77,49 L-79,49 L-80,54 L-84,56 L-87,54 L-87,55 L-92,55 L-96,52 L-105,56 L-108,57 L-110,55 L-112,53 L-109,51 L-109,48 L-105,47 L-107,43 L-104,42 L-104,44 L-101,43 L-98,43 L-95,43 L-95,45 L-92,43 L-98,41 L-98,38 L-99,36 L-95,35 L-91,35 L-91,32 L-95,31 L-93,31 L-93,29 L-91,29 L-90,24 L-88,24 L-88,28 L-90,28 L-90,30 L-85,27 L-82,30 L-82,33 L-80,29 L-76,26 L-74,23 L-72,25 L-70,25 L-71,21 L-72,19 L-67,20 L-66,25 L-70,27 L-69,30 L-69,33 L-65,32 L-65,30 L-62,31 L-61,28 L-55,28 L-51,24 L-49,24 L-48,26 L-46,24 L-42,29 L-39,26 L-38,23 L-36,24 L-33,25 L-33,28 L-31,25 L-31,22 L-29,22 L-29,16 L-33,17 L-35,15 L-28,10 L-26,8 L-24,9 L-24,6 L-22,7 L-22,12 L-25,13 L-24,15 L-22,16 L-20,12 L-17,12 L-16,9 L-10,4 L-5,5 L-3,6 L-3,3 L-1,3 Z M-77,46 Z M-96,49 L-95,51 Z M-94,51 Z M-72,51 Z M-43,21 L-41,23 L-41,26 L-44,25 Z M-82,28 Z M-110,57 L-108,57 L-108,60 L-110,60 Z " fill="#343434" transform="translate(627,303)"/>
<path d="M0,0 L16,0 L41,2 L42,3 L42,30 L39,29 L38,26 L41,19 L39,18 L41,18 L38,13 L37,15 L33,14 L33,12 L31,16 L32,18 L29,20 L29,22 L33,21 L30,24 L28,24 L28,22 L23,22 L23,24 L25,25 L22,26 L21,22 L16,29 L14,26 L13,29 L12,27 L10,27 L12,34 L7,34 L5,32 L-4,32 L-5,28 L-9,29 L-11,35 L-12,31 L-14,32 L-17,37 L-19,41 L-26,39 L-28,42 L-32,43 L-33,41 L-30,38 L-33,39 L-37,38 L-34,35 L-32,30 L-36,32 L-36,35 L-40,35 L-39,38 L-47,40 L-49,38 L-51,42 L-56,43 L-54,48 L-58,47 L-60,43 L-60,40 L-62,40 L-68,44 L-70,44 L-70,42 L-68,42 L-69,37 L-70,37 L-71,39 L-81,39 L-82,42 L-85,39 L-85,41 L-89,43 L-90,49 L-95,50 L-95,48 L-98,49 L-96,42 L-100,43 L-98,44 L-99,46 L-102,48 L-104,50 L-105,47 L-110,46 L-106,45 L-104,45 L-105,43 L-108,43 L-107,40 L-109,41 L-110,44 L-112,44 L-112,40 L-110,40 L-110,38 L-114,37 L-114,39 L-113,42 L-118,45 L-124,43 L-126,48 L-127,49 L-133,49 L-130,47 L-128,47 L-128,45 L-140,47 L-136,43 L-114,30 L-89,19 L-69,12 L-52,7 L-26,2 Z M34,9 L35,12 L35,9 Z " fill="#747473" transform="translate(516,210)"/>
<path d="M0,0 L8,3 L7,5 L13,5 L15,3 L15,5 L18,6 L20,7 L19,10 L17,10 L18,14 L18,11 L22,10 L23,10 L23,9 L21,9 L23,3 L24,5 L26,4 L29,4 L28,9 L29,8 L33,8 L35,10 L35,11 L39,10 L43,9 L45,8 L45,6 L48,7 L48,9 L47,16 L50,12 L52,12 L55,9 L57,11 L57,16 L60,15 L60,11 L64,10 L61,8 L65,7 L67,10 L67,11 L72,6 L74,7 L73,9 L75,13 L81,13 L79,11 L83,8 L85,10 L85,11 L86,15 L86,9 L90,9 L88,5 L90,3 L93,5 L94,4 L100,3 L102,1 L103,5 L107,4 L105,10 L111,10 L111,13 L111,16 L108,18 L81,24 L77,26 L64,29 L44,35 L39,36 L39,32 L44,30 L43,27 L36,26 L39,28 L36,31 L32,31 L31,29 L27,30 L25,29 L23,23 L19,28 L17,26 L13,27 L13,25 L11,25 L10,23 L8,26 L6,26 L6,24 L3,25 L7,28 L4,30 L2,31 L3,34 L1,34 L0,32 L-3,33 L-4,37 L-7,38 L-8,34 L-7,30 L-10,32 L-13,37 L-20,37 L-20,35 L-27,38 L-28,36 L-27,34 L-29,34 L-30,36 L-30,34 L-34,35 L-36,30 L-37,32 L-40,27 L-40,25 L-41,26 L-43,29 L-45,27 L-47,31 L-52,31 L-52,34 L-57,36 L-57,34 L-61,37 L-63,36 L-48,22 L-43,18 L-30,12 L-28,10 L-26,8 L-21,9 L-16,9 L-16,6 L-13,6 L-13,9 L-11,9 L-11,11 L-9,11 L-7,7 L-3,3 L-1,3 Z M46,26 L48,29 L50,27 Z M12,27 Z " fill="#565656" transform="translate(392,258)"/>
<path d="M0,0 L22,0 L42,2 L59,6 L74,11 L72,13 L65,12 L64,14 L62,14 L62,17 L56,15 L54,14 L54,11 L53,16 L51,15 L51,13 L48,13 L48,11 L44,11 L45,14 L37,16 L36,14 L33,17 L30,17 L28,19 L29,14 L27,14 L26,14 L23,14 L22,15 L19,17 L18,22 L14,22 L13,24 L11,22 L8,23 L7,25 L6,22 L5,25 L3,25 L3,28 L-1,27 L0,26 L-2,26 L-2,24 L-6,22 L-6,27 L-8,27 L-8,29 L-10,28 L-9,25 L-11,25 L-11,27 L-15,28 L-15,30 L-20,29 L-26,31 L-29,28 L-31,30 L-34,30 L-34,35 L-37,34 L-39,31 L-42,30 L-42,33 L-45,32 L-46,30 L-47,31 L-46,33 L-49,36 L-51,37 L-56,42 L-60,43 L-61,47 L-61,45 L-63,44 L-64,43 L-62,39 L-60,38 L-63,38 L-63,36 L-65,37 L-65,39 L-72,40 L-73,38 L-81,39 L-82,42 L-84,42 L-84,40 L-87,37 L-78,29 L-64,20 L-48,12 L-32,6 L-16,2 Z " fill="#4D4E4D" transform="translate(562,292)"/>
<path d="M0,0 L2,2 L4,1 L5,3 L7,2 L7,5 L5,5 L5,8 L2,10 L1,16 L-13,26 L-23,34 L-33,43 L-40,49 L-47,57 L-58,70 L-69,86 L-78,102 L-84,116 L-89,132 L-90,132 L-89,123 L-83,94 L-76,71 L-68,51 L-58,31 L-49,16 L-42,15 L-41,19 L-39,18 L-41,17 L-40,14 L-38,14 L-37,12 L-34,12 L-34,9 L-37,8 L-33,6 L-29,6 L-28,4 L-24,6 L-26,7 L-24,9 L-24,11 L-20,11 L-20,13 L-18,13 L-18,16 L-16,16 L-17,13 L-13,13 L-13,12 L-11,4 L-10,2 L-4,4 L-4,2 Z M-8,4 L-9,6 L-7,6 Z M-24,9 L-22,9 L-22,11 L-24,11 Z " fill="#343434" transform="translate(344,321)"/>
<path d="M0,0 L1,3 L4,2 L6,4 L9,4 L13,0 L15,4 L16,6 L25,8 L27,6 L25,3 L35,5 L35,7 L37,8 L32,10 L29,10 L28,15 L13,21 L0,26 L-10,31 L-12,31 L-11,28 L-7,26 L-9,22 L-7,21 L-11,20 L-10,23 L-13,25 L-14,21 L-21,22 L-23,22 L-24,26 L-31,27 L-31,24 L-27,25 L-27,22 L-30,22 L-33,21 L-33,23 L-35,23 L-34,27 L-40,26 L-42,27 L-43,26 L-44,28 L-48,27 L-46,22 L-46,20 L-50,21 L-51,25 L-58,25 L-59,22 L-62,20 L-59,18 L-64,19 L-63,23 L-65,23 L-65,26 L-69,25 L-73,19 L-75,17 L-69,12 L-67,12 L-67,14 L-65,14 L-64,11 L-64,8 L-62,7 L-62,9 L-57,8 L-55,4 L-53,4 L-52,1 L-52,3 L-50,3 L-50,5 L-48,6 L-44,9 L-44,13 L-37,12 L-37,15 L-30,13 L-23,15 L-23,11 L-21,9 L-17,8 L-17,13 L-14,13 L-14,10 L-10,9 L-9,12 L-8,7 L-6,5 L-8,2 L-6,1 L-4,2 L-4,4 L-2,4 Z M2,5 L3,7 Z M-43,15 L-44,20 L-41,19 L-40,15 Z M-71,18 L-69,20 L-69,18 Z M-58,21 Z M36,4 L40,6 L37,7 Z " fill="#484848" transform="translate(402,280)"/>
<path d="M0,0 Z M-13,-1 L-12,1 L-7,3 L-3,1 L1,3 L-1,7 L-4,6 L-6,10 L-6,8 L-10,10 L-13,13 L-15,13 L-15,16 L-20,20 L-19,12 L-24,17 L-26,17 L-25,21 L-26,23 L-34,27 L-35,31 L-40,32 L-40,30 L-45,32 L-47,36 L-49,40 L-52,40 L-53,42 L-58,40 L-59,44 L-66,45 L-67,42 L-70,40 L-71,43 L-73,45 L-72,49 L-68,48 L-70,55 L-74,56 L-78,57 L-80,58 L-79,50 L-72,32 L-64,18 L-57,18 L-58,17 L-58,15 L-53,14 L-53,12 L-50,11 L-52,9 L-48,8 L-49,5 L-46,5 L-46,3 L-44,3 L-42,7 L-40,7 L-38,5 L-35,8 L-35,6 L-30,7 L-30,9 L-23,8 L-19,7 L-17,5 L-16,7 L-13,5 L-16,2 Z M-13,2 L-11,4 L-11,2 Z M-34,7 Z M-38,8 L-37,10 Z M-18,8 L-17,11 Z M-76,54 Z M-43,4 L-41,5 L-43,6 Z " fill="#393939" transform="translate(513,341)"/>
<path d="M0,0 L3,0 L3,3 L6,2 L9,0 L12,1 L12,4 L14,4 L14,6 L21,4 L23,3 L27,7 L32,6 L35,11 L33,11 L33,9 L31,9 L32,13 L34,13 L34,15 L36,13 L37,11 L39,11 L42,12 L47,11 L46,8 L52,10 L51,12 L55,13 L55,15 L51,15 L52,18 L44,20 L42,18 L40,22 L35,23 L37,28 L33,27 L31,23 L31,20 L29,20 L23,24 L21,24 L21,22 L23,22 L22,17 L21,17 L20,19 L10,19 L9,22 L6,19 L6,21 L2,23 L1,29 L-4,30 L-4,28 L-7,29 L-5,22 L-9,23 L-7,24 L-8,26 L-11,28 L-13,30 L-14,27 L-19,26 L-15,25 L-13,25 L-14,23 L-17,23 L-16,20 L-18,21 L-19,24 L-21,24 L-21,20 L-19,20 L-19,18 L-23,17 L-23,19 L-22,22 L-27,25 L-33,23 L-35,28 L-36,29 L-42,29 L-39,27 L-37,27 L-37,25 L-49,27 L-45,23 L-23,10 Z " fill="#6E6E6D" transform="translate(425,230)"/>
<path d="M0,0 L16,0 L41,2 L41,3 L33,4 L30,7 L29,10 L23,10 L22,8 L20,8 L20,5 L14,6 L14,8 L12,7 L8,10 L-5,13 L-6,9 L-8,11 L-7,12 L-6,15 L-7,17 L-2,16 L-1,19 L-5,20 L-9,18 L-11,16 L-11,18 L-16,16 L-15,19 L-23,19 L-23,16 L-26,16 L-27,18 L-28,15 L-29,17 L-37,18 L-36,14 L-33,14 L-37,14 L-39,19 L-40,17 L-43,18 L-44,17 L-46,20 L-48,20 L-48,23 L-50,22 L-52,22 L-51,18 L-51,17 L-56,19 L-61,20 L-63,22 L-63,19 L-63,16 L-66,19 L-66,20 L-73,21 L-74,21 L-75,26 L-77,26 L-77,24 L-79,24 L-81,21 L-84,23 L-86,24 L-88,23 L-89,19 L-69,12 L-52,7 L-26,2 Z " fill="#818181" transform="translate(516,210)"/>
<path d="M0,0 L2,1 L1,3 Z M-2,2 L1,4 L1,5 L6,4 L7,10 L5,18 L7,17 L8,21 L8,41 L7,41 L7,25 L-1,23 L-3,27 L-4,25 L-5,28 L-3,29 L-5,30 L-12,29 L-11,33 L-15,34 L-11,35 L-13,36 L-20,35 L-17,37 L-22,38 L-22,40 L-27,40 L-31,42 L-31,40 L-34,42 L-38,41 L-35,41 L-35,39 L-41,39 L-46,33 L-50,35 L-52,32 L-48,30 L-50,29 L-49,23 L-46,22 L-45,23 L-43,19 L-41,18 L-37,22 L-28,22 L-26,24 L-23,24 L-23,21 L-26,20 L-24,20 L-24,18 L-21,19 L-20,17 L-18,18 L-13,12 L-11,16 L-11,13 L-6,13 L-6,15 L-3,13 L-5,13 L-6,10 L-2,9 L-5,6 L-3,6 Z M-51,35 Z " fill="#5F5E5D" transform="translate(550,219)"/>
<path d="M0,0 L22,0 L22,1 L1,2 L0,4 L-5,4 L-5,6 L-8,6 L-8,3 L-10,4 L-9,7 L-11,9 L-12,13 L-20,9 L-22,9 L-26,11 L-23,12 L-25,16 L-22,19 L-31,18 L-35,20 L-35,23 L-40,28 L-41,23 L-44,24 L-45,27 L-52,29 L-59,30 L-60,32 L-63,33 L-61,33 L-61,35 L-65,37 L-65,39 L-72,40 L-73,38 L-81,39 L-82,42 L-84,42 L-84,40 L-87,37 L-78,29 L-64,20 L-48,12 L-32,6 L-16,2 Z " fill="#545554" transform="translate(562,292)"/>
<path d="M0,0 L5,3 L7,4 L8,29 L-24,32 L-29,33 L-41,33 L-42,28 L-40,21 L-43,22 L-43,20 L-40,18 L-40,17 L-33,17 L-35,18 L-34,20 L-30,20 L-28,20 L-27,18 L-22,19 L-22,17 L-18,16 L-21,14 L-19,13 L-12,14 L-15,13 L-14,11 L-13,10 L-12,7 L-4,8 L-6,4 L-3,5 L-1,1 Z " fill="#565656" transform="translate(550,240)"/>
<path d="M0,0 L4,2 L5,5 L4,7 L1,9 L3,12 L10,6 L12,7 L10,10 L8,10 L9,17 L5,18 L-4,18 L-5,16 L-3,14 L-2,11 L-6,13 L-7,15 L-6,16 L-9,17 L-10,19 L-10,17 L-12,16 L-11,13 L-13,14 L-16,15 L-13,17 L-16,20 L-17,22 L-22,21 L-23,23 L-25,22 L-25,20 L-23,20 L-25,17 L-26,19 L-29,17 L-31,22 L-29,22 L-29,20 L-27,21 L-26,23 L-29,23 L-29,25 L-34,24 L-34,27 L-36,26 L-35,23 L-33,21 L-35,20 L-38,18 L-40,20 L-40,18 L-46,19 L-48,17 L-47,16 L-52,14 L-53,18 L-58,20 L-61,24 L-63,24 L-63,22 L-65,22 L-67,19 L-66,22 L-73,23 L-79,22 L-81,26 L-86,28 L-92,31 L-94,30 L-77,17 L-70,12 L-62,10 L-56,10 L-56,12 L-58,13 L-55,13 L-52,8 L-47,8 L-44,8 L-42,7 L-42,5 L-44,4 L-44,2 L-41,1 L-38,3 L-40,9 L-38,9 L-37,5 L-35,2 L-32,4 L-35,6 L-34,7 L-32,8 L-32,10 L-37,11 L-32,11 L-31,12 L-26,9 L-29,8 L-28,6 L-24,7 L-25,13 L-19,14 L-16,6 L-13,6 L-13,4 L-10,5 L-7,3 L1,3 Z " fill="#646363" transform="translate(444,245)"/>
<path d="M0,0 L9,0 L9,27 L6,26 L5,23 L8,16 L6,15 L8,15 L5,10 L4,12 L0,11 L0,9 L-2,13 L-1,15 L-4,17 L-4,19 L0,18 L-3,21 L-5,21 L-5,19 L-10,19 L-10,21 L-8,22 L-11,23 L-12,19 L-17,26 L-19,23 L-20,26 L-21,24 L-23,24 L-21,31 L-26,31 L-28,29 L-37,29 L-38,25 L-42,26 L-44,32 L-45,28 L-47,29 L-50,34 L-52,38 L-59,36 L-61,39 L-65,40 L-66,38 L-63,35 L-66,36 L-70,35 L-67,32 L-65,27 L-62,26 L-61,23 L-60,25 L-57,20 L-55,21 L-55,23 L-57,23 L-57,25 L-55,24 L-53,21 L-50,22 L-49,25 L-50,27 L-46,25 L-46,23 L-43,20 L-46,18 L-43,17 L-38,19 L-38,22 L-35,21 L-35,18 L-29,18 L-28,16 L-25,16 L-25,12 L-16,12 L-18,13 L-17,16 L-18,17 L-15,18 L-13,10 L-12,12 L-9,12 L-9,14 L-7,14 L-9,9 L-12,9 L-16,6 L-15,2 L-13,2 L-13,5 L-11,5 L-10,3 L-10,5 L-4,6 L-3,2 Z M1,6 L2,9 L2,6 Z " fill="#6E6E6D" transform="translate(549,213)"/>
<path d="M0,0 L3,3 L4,5 L1,5 L5,5 L7,6 L6,8 L8,7 L9,3 L12,3 L12,1 L14,2 L17,3 L19,0 L19,5 L16,7 L18,11 L19,8 L23,7 L25,7 L25,4 L29,6 L30,2 L33,12 L36,14 L37,18 L35,18 L36,21 L34,21 L33,19 L30,20 L29,24 L26,25 L25,21 L26,17 L23,19 L20,24 L13,24 L13,22 L6,25 L5,23 L6,21 L4,21 L3,23 L3,21 L-1,22 L-3,17 L-4,19 L-7,14 L-7,12 L-8,13 L-10,16 L-12,14 L-14,18 L-19,18 L-19,21 L-24,23 L-24,21 L-28,24 L-30,23 L-15,9 L-10,5 Z M-2,6 L-1,10 L2,9 L-1,6 Z M32,6 L34,7 L32,8 Z " fill="#505050" transform="translate(359,271)"/>
<path d="M0,0 L1,2 L-1,2 L-1,4 L2,4 L3,4 L5,1 L7,2 L7,4 L5,8 L3,8 L2,11 L-1,14 L-4,16 L-7,21 L-8,18 L-10,14 L-7,14 L-7,9 L-8,8 L-8,11 L-12,13 L-18,17 L-16,18 L-12,17 L-13,24 L-15,24 L-14,28 L-17,31 L-20,29 L-17,29 L-17,27 L-21,28 L-22,27 L-24,31 L-27,32 L-30,27 L-32,29 L-33,26 L-38,31 L-45,30 L-46,34 L-47,32 L-49,32 L-48,35 L-53,36 L-54,32 L-51,32 L-50,28 L-46,26 L-45,22 L-36,17 L-34,18 L-32,22 L-31,18 L-40,16 L-38,12 L-36,13 L-32,11 L-31,7 L-28,6 L-27,4 L-24,4 L-22,2 L-21,4 L-19,5 L-19,7 L-15,7 L-13,4 L-11,5 L-9,2 L-9,6 L-7,6 L-6,4 L-5,2 Z M-27,23 L-28,28 L-25,28 L-26,23 Z " fill="#3E3E3E" transform="translate(611,301)"/>
<path d="M0,0 L8,3 L7,5 L13,5 L15,3 L15,5 L18,6 L20,7 L19,10 L17,10 L18,14 L18,11 L22,10 L23,10 L23,9 L21,9 L23,3 L24,5 L26,4 L29,4 L28,9 L29,8 L32,7 L32,12 L30,13 L26,17 L21,17 L21,20 L18,17 L11,16 L7,16 L5,16 L3,22 L1,21 L1,19 L-1,19 L-2,21 L-3,18 L-6,19 L-8,19 L-6,21 L-9,22 L-11,21 L-14,22 L-13,24 L-16,25 L-18,23 L-16,23 L-18,19 L-14,18 L-20,16 L-21,16 L-24,17 L-24,22 L-27,21 L-28,19 L-32,20 L-32,18 L-29,18 L-32,16 L-31,12 L-28,11 L-27,8 L-21,9 L-16,9 L-16,6 L-13,6 L-13,9 L-11,9 L-11,11 L-9,11 L-7,7 L-3,3 L-1,3 Z M-35,19 L-31,21 L-32,23 L-35,22 Z " fill="#5D5C5C" transform="translate(392,258)"/>
<path d="M0,0 L5,4 L7,5 L8,3 L10,1 L13,0 L19,1 L19,5 L23,6 L20,2 L26,0 L27,3 L29,4 L30,2 L32,3 L32,0 L36,1 L37,9 L36,13 L32,15 L30,19 L24,22 L24,17 L28,15 L28,12 L30,12 L29,10 L27,11 L26,9 L22,10 L24,9 L21,9 L19,9 L19,11 L15,10 L13,9 L11,18 L11,21 L8,22 L7,23 L5,23 L5,20 L-1,19 L1,18 L1,16 L-4,15 L-3,13 L-5,13 L-7,14 L-13,15 L-10,18 L-13,21 L-15,21 L-18,24 L-14,25 L-18,27 L-20,25 L-19,22 L-24,24 L-25,22 L-16,9 L-12,7 L-12,10 L-7,9 L-3,8 L-5,7 L-3,3 Z M25,3 Z M15,11 L16,13 L14,12 Z M-3,16 L-1,16 L-2,18 Z " fill="#3D3D3D" transform="translate(321,314)"/>
<path d="M0,0 L5,1 L6,6 L1,8 L0,13 L-2,13 L-3,15 L-1,15 L-3,20 L-6,21 L-7,27 L-7,30 L-8,35 L-12,37 L-15,35 L-15,36 L-20,36 L-24,33 L-33,37 L-36,38 L-38,36 L-40,34 L-37,32 L-37,29 L-33,28 L-35,24 L-32,23 L-32,25 L-29,24 L-26,24 L-23,24 L-23,26 L-20,24 L-26,22 L-26,19 L-27,17 L-23,16 L-19,16 L-19,13 L-23,12 L-21,12 L-21,10 L-19,10 L-18,5 L-16,5 L-16,9 L-18,9 L-18,11 L-13,8 L-10,11 L-10,14 L-8,10 L-4,7 L-2,4 L0,6 L2,6 L1,2 Z M-24,30 L-23,32 Z M-22,32 Z M-10,9 Z M-38,38 L-36,38 L-36,41 L-38,41 Z " fill="#373837" transform="translate(555,322)"/>
<path d="M0,0 L3,0 L3,3 L6,2 L9,0 L12,1 L12,4 L14,4 L15,6 L20,7 L18,9 L24,12 L20,13 L16,11 L15,10 L16,13 L11,14 L12,9 L7,8 L6,12 L6,13 L6,15 L2,17 L1,11 L-2,10 L-4,12 L-3,17 L-5,17 L-4,20 L-8,18 L-11,15 L-13,16 L-13,18 L-18,21 L-19,24 L-21,24 L-21,20 L-19,20 L-19,18 L-23,17 L-23,19 L-22,22 L-27,25 L-33,23 L-35,28 L-36,29 L-42,29 L-39,27 L-37,27 L-37,25 L-49,27 L-45,23 L-23,10 Z " fill="#757575" transform="translate(425,230)"/>
<path d="M0,0 L16,0 L41,2 L41,3 L33,4 L30,7 L29,10 L23,10 L22,8 L20,8 L20,5 L14,6 L14,8 L12,7 L8,10 L-5,13 L-6,9 L-8,11 L-7,12 L-6,15 L-7,17 L-2,16 L-1,19 L-5,20 L-9,18 L-11,16 L-11,18 L-16,16 L-15,19 L-23,19 L-23,16 L-26,16 L-27,18 L-28,15 L-29,17 L-32,17 L-31,12 L-29,10 L-26,10 L-21,9 L-17,7 L-17,5 L-15,4 L-18,3 L-16,3 L-16,1 Z " fill="#81817F" transform="translate(516,210)"/>
<path d="M0,0 L3,4 L3,7 L9,11 L11,11 L13,11 L14,9 L17,12 L20,11 L22,12 L23,13 L25,14 L26,18 L29,19 L25,21 L24,22 L23,25 L21,24 L21,22 L19,21 L19,24 L12,23 L11,25 L9,18 L6,21 L3,22 L1,21 L3,19 L1,18 L1,20 L-3,21 L-2,25 L-4,27 L-7,27 L-6,22 L-8,21 L-9,20 L-11,23 L-14,24 L-12,26 L-16,26 L-16,19 L-18,16 L-20,21 L-23,20 L-26,22 L-27,21 L-28,23 L-30,22 L-28,18 L-29,16 L-25,14 L-28,12 L-26,10 L-25,9 L-22,10 L-21,14 L-19,13 L-21,11 L-17,10 L-13,7 L-11,8 L-13,10 L-12,12 L-15,14 L-3,14 L-4,9 L-3,7 L-1,7 L-1,4 L-4,7 L-9,11 L-10,6 L-13,5 L-9,4 L-9,6 L-1,1 Z " fill="#5E5D5D" transform="translate(455,248)"/>
<path d="M0,0 L3,1 L3,3 L2,11 L4,12 L3,15 L-1,13 L-2,15 L-5,15 L-4,17 L-9,20 L-6,22 L-9,25 L-13,25 L-14,23 L-18,24 L-20,23 L-22,17 L-26,22 L-28,20 L-32,21 L-32,19 L-34,19 L-35,17 L-37,20 L-39,20 L-39,18 L-42,19 L-38,22 L-42,23 L-47,17 L-44,14 L-42,15 L-42,12 L-40,12 L-40,10 L-34,8 L-32,9 L-26,10 L-26,12 L-25,12 L-24,10 L-17,9 L-15,5 L-12,2 L-10,4 L-10,5 L-6,4 L-2,3 L0,2 Z M-33,21 Z " fill="#575556" transform="translate(437,264)"/>
<path d="M0,0 L5,0 L5,2 L9,1 L10,4 L12,6 L10,6 L10,8 L5,8 L6,5 L2,4 L2,3 L0,3 L0,8 L-3,8 L-3,10 L-1,10 L-1,12 L8,11 L9,13 L8,15 L10,16 L9,20 L4,21 L-4,23 L-3,20 L-7,18 L-7,20 L-11,19 L-15,19 L-17,17 L-16,15 L-18,15 L-18,17 L-21,17 L-21,19 L-19,20 L-22,22 L-20,24 L-24,25 L-25,27 L-30,27 L-27,29 L-29,31 L-35,30 L-31,23 L-22,12 L-14,3 L-9,1 L-6,3 L-7,5 L-2,1 Z M4,12 L2,15 L5,14 Z M-15,16 L-14,18 L-13,16 Z M-6,19 Z M-10,20 Z " fill="#3E3E3E" transform="translate(485,329)"/>
<path d="M0,0 L7,1 L13,2 L32,11 L30,12 L29,18 L26,15 L22,17 L21,19 L15,18 L13,23 L15,24 L12,24 L10,18 L6,20 L5,16 L4,14 L2,14 L2,12 L-4,13 L-7,14 L-9,16 L-11,15 L-12,17 L-14,16 L-14,18 L-12,19 L-12,21 L-18,21 L-19,18 L-18,16 L-12,13 L-13,8 L-9,4 L-5,5 L-3,6 L-3,3 L-1,3 Z M8,11 L6,13 L6,16 L10,16 L10,14 L12,13 Z M-10,16 Z " fill="#404040" transform="translate(627,303)"/>
<path d="M0,0 L3,0 L4,3 L9,2 L11,10 L9,10 L9,12 L7,11 L8,8 L6,8 L6,10 L2,11 L2,13 L-3,12 L-9,14 L-12,11 L-14,13 L-17,13 L-17,18 L-20,17 L-22,14 L-25,13 L-25,16 L-28,15 L-29,13 L-30,14 L-29,16 L-32,19 L-34,20 L-39,25 L-43,26 L-44,30 L-44,28 L-46,27 L-47,26 L-45,22 L-43,21 L-46,21 L-46,18 L-45,17 L-47,15 L-45,14 L-43,15 L-42,12 L-35,11 L-28,9 L-28,6 L-24,6 L-22,9 L-18,5 L-18,2 L-14,1 L-15,5 L-8,4 L-5,8 L-4,5 L0,6 L1,2 Z " fill="#4E4E4C" transform="translate(545,309)"/>
<path d="M0,0 L2,4 L2,1 L7,1 L6,7 L5,9 L-1,11 L0,13 L-4,17 L-9,19 L-10,22 L-10,20 L-14,22 L-17,24 L-21,22 L-22,19 L-18,19 L-18,16 L-20,16 L-21,18 L-22,16 L-26,19 L-24,21 L-26,23 L-29,20 L-29,22 L-27,22 L-25,24 L-22,25 L-22,26 L-28,27 L-33,21 L-37,23 L-39,20 L-35,18 L-37,17 L-36,11 L-33,10 L-32,11 L-30,7 L-28,6 L-24,10 L-15,10 L-13,12 L-10,12 L-10,9 L-13,8 L-11,8 L-11,6 L-8,7 L-7,5 L-5,6 Z M-38,23 Z " fill="#656464" transform="translate(537,231)"/>
<path d="M0,0 L2,0 L4,4 L6,4 L8,2 L11,5 L11,3 L16,4 L14,9 L16,10 L13,11 L12,13 L8,12 L7,14 L3,16 L2,13 L1,18 L2,20 L1,23 L-4,22 L-4,24 L-6,24 L-7,22 L-8,25 L-10,25 L-12,29 L-16,28 L-16,25 L-18,25 L-19,27 L-22,28 L-25,31 L-25,28 L-18,15 L-11,15 L-12,14 L-12,12 L-7,11 L-7,9 L-4,8 L-6,6 L-2,5 L-3,2 L0,2 Z M12,4 Z M8,5 L9,7 Z M4,9 L1,12 L4,12 L8,11 L7,9 Z M3,1 L5,2 L3,3 Z " fill="#3E3E3E" transform="translate(467,344)"/>
<path d="M0,0 L1,3 L4,2 L6,4 L9,4 L13,0 L15,4 L16,6 L25,8 L27,6 L25,3 L35,5 L35,7 L37,8 L32,10 L29,10 L28,15 L13,21 L5,23 L4,21 L6,21 L7,18 L10,19 L11,15 L8,13 L3,14 L1,14 L1,11 L-3,10 L-4,7 L-3,5 L-7,4 L-7,1 L-4,2 L-4,4 L-2,4 Z M2,5 L3,7 Z M36,4 L40,6 L37,7 Z " fill="#4D4D4D" transform="translate(402,280)"/>
<path d="M0,0 L3,2 L3,6 L-2,9 L0,11 L2,9 L2,11 L4,11 L5,9 L10,10 L10,14 L12,14 L12,16 L15,15 L15,18 L-12,27 L-15,27 L-15,23 L-10,21 L-11,18 L-17,17 L-17,15 L-15,13 L-16,11 L-11,12 L-11,7 L-10,10 L-7,11 L-6,12 L-7,7 L-4,3 L-2,3 Z M5,11 L6,13 L7,11 Z M-8,17 L-6,20 L-4,18 Z " fill="#515151" transform="translate(446,267)"/>
<path d="M0,0 L1,2 L-1,2 L-1,4 L2,4 L3,4 L5,1 L7,2 L7,4 L5,8 L3,8 L2,11 L-1,14 L-4,16 L-7,21 L-8,18 L-10,14 L-7,14 L-7,9 L-8,8 L-8,11 L-12,13 L-19,17 L-22,14 L-22,16 L-31,16 L-31,7 L-28,6 L-27,4 L-24,4 L-22,2 L-21,4 L-19,5 L-19,7 L-15,7 L-13,4 L-11,5 L-9,2 L-9,6 L-7,6 L-6,4 L-5,2 Z " fill="#434343" transform="translate(611,301)"/>
<path d="M0,0 L5,5 L8,8 L4,9 L7,10 L6,15 L8,16 L6,17 L6,22 L9,23 L1,25 L-3,24 L0,18 L-6,17 L-5,12 L-9,13 L-10,10 L-13,11 L-14,13 L-17,13 L-19,12 L-20,13 L-23,9 L-24,7 L-23,5 L-20,6 L-19,7 L-15,3 L-6,2 L-8,5 L-5,5 Z " fill="#5D5D5D" transform="translate(503,251)"/>
<path d="M0,0 L5,0 L5,3 L7,3 L7,6 L11,6 L12,8 L14,8 L12,12 L12,10 L6,11 L4,9 L5,8 L0,6 L-1,10 L-6,12 L-9,16 L-11,16 L-11,14 L-13,14 L-15,11 L-14,14 L-21,15 L-27,14 L-29,18 L-34,20 L-40,23 L-42,22 L-25,9 L-18,4 L-10,2 L-4,2 L-4,4 L-6,5 L-3,5 Z " fill="#636363" transform="translate(392,253)"/>
<path d="M0,0 L8,0 L26,5 L31,7 L29,9 L22,8 L21,10 L19,10 L19,13 L13,11 L11,10 L11,7 L10,12 L8,11 L8,9 L5,9 L5,7 L1,7 L2,10 L-6,12 L-7,10 L-10,13 L-13,13 L-15,15 L-14,9 L-15,6 L-13,6 L-12,4 L-10,4 L-8,1 L0,2 Z " fill="#4A4A48" transform="translate(605,296)"/>
<path d="M0,0 L4,1 L5,5 L5,14 L-18,16 L-27,16 L-27,13 L-26,10 L-22,9 L-17,11 L-16,9 L-18,8 L-15,4 L-8,4 L-7,2 L-1,2 Z " fill="#505050" transform="translate(553,255)"/>
<path d="M0,0 L16,0 L41,2 L41,3 L33,4 L30,7 L29,10 L23,10 L22,8 L20,8 L20,5 L14,6 L14,8 L12,7 L8,10 L-5,13 L-6,10 L-3,7 L-1,8 L-2,3 L0,3 L0,6 L1,5 L1,3 L-8,3 L-16,2 L-16,1 Z " fill="#767776" transform="translate(516,210)"/>
<path d="M0,0 L3,2 L3,4 L6,4 L12,11 L11,13 L8,12 L4,14 L4,10 L6,10 L6,8 L4,9 L3,13 L1,13 L1,15 L5,16 L0,21 L-1,19 L-3,19 L-3,17 L-6,16 L-5,14 L-7,14 L-8,16 L-12,12 L-13,12 L-15,13 L-16,14 L-20,14 L-18,9 L-17,7 L-14,6 L-13,3 L-9,4 L-7,6 L-6,7 L-5,2 L-4,4 L-2,1 Z M-11,8 L-10,10 Z " fill="#474746" transform="translate(533,319)"/>
<path d="M0,0 L3,0 L3,3 L6,2 L9,0 L12,1 L12,4 L14,4 L15,6 L20,7 L18,9 L24,12 L20,13 L16,11 L15,10 L16,13 L11,14 L12,9 L7,8 L6,12 L6,13 L6,15 L2,17 L1,11 L-2,10 L-6,7 L-8,6 L-9,8 L-6,9 L-8,9 L-8,11 L-14,11 L-15,13 L-15,11 L-19,12 L-23,10 Z " fill="#777776" transform="translate(425,230)"/>
<path d="M0,0 L5,3 L7,4 L7,16 L3,17 L-1,18 L-4,18 L-2,20 L-12,20 L-11,21 L-15,23 L-16,20 L-13,17 L-12,14 L-15,13 L-14,11 L-13,10 L-12,7 L-4,8 L-6,4 L-3,5 L-1,1 Z " fill="#575657" transform="translate(550,240)"/>
<path d="M0,0 L2,1 L2,50 L3,50 L3,61 L5,66 L2,68 L3,75 L5,82 L2,81 L3,89 L2,91 L4,92 L4,98 L2,98 L4,107 L3,111 L3,114 L1,114 L3,116 L5,117 L3,122 L1,122 L2,126 L1,128 L3,129 L1,129 L2,136 L0,138 Z M1,78 L2,80 L3,78 Z " fill="#CDCDCD" transform="translate(558,669)"/>
<path d="M0,0 L2,1 L1,6 L1,10 L5,8 L6,10 L4,11 L4,15 L7,17 L7,19 L-3,21 L-4,19 L-6,19 L-6,17 L-8,17 L-8,13 L-11,14 L-14,14 L-18,15 L-22,12 L-16,9 L-12,9 L-12,5 L-8,4 L-11,2 L-7,1 L-5,4 L-5,5 Z M0,10 Z M-13,14 L-11,15 L-13,16 Z " fill="#555555" transform="translate(464,264)"/>
<path d="M0,0 L4,2 L5,5 L3,5 L3,3 L1,3 L2,7 L4,7 L4,9 L6,7 L7,5 L9,5 L12,6 L17,5 L16,2 L22,4 L21,6 L25,7 L25,9 L21,9 L22,12 L14,14 L12,12 L10,16 L5,17 L7,22 L3,21 L1,17 L1,14 L-1,14 L-5,15 L-6,10 L0,10 L2,11 L2,9 L-2,8 L-1,3 L-3,2 Z " fill="#6C6B6A" transform="translate(455,236)"/>
<path d="M0,0 L22,0 L22,1 L1,2 L0,4 L-5,4 L-5,6 L-8,6 L-8,3 L-10,4 L-9,7 L-11,9 L-12,13 L-20,9 L-22,9 L-27,11 L-29,10 L-30,12 L-34,11 L-35,13 L-37,11 L-40,12 L-46,14 L-48,12 L-32,6 L-16,2 Z " fill="#565654" transform="translate(562,292)"/>
<path d="M0,0 L5,1 L1,4 L3,8 L-2,10 L-6,14 L-17,19 L-21,15 L-17,13 L-18,10 L-17,7 L-15,7 L-14,2 L-12,1 L-12,3 L-9,3 L-8,1 L-4,2 L-3,5 L-2,1 Z " fill="#444444" transform="translate(393,299)"/>
<path d="M0,0 L4,2 L4,4 L5,2 L9,3 L10,4 L12,5 L13,9 L16,10 L12,12 L11,13 L10,16 L8,15 L8,13 L6,12 L6,15 L-1,14 L-2,16 L-4,9 L-7,12 L-10,13 L-12,12 L-10,10 L-11,5 L-9,5 L-8,1 L-3,3 L0,2 Z " fill="#5C5C5B" transform="translate(468,257)"/>
<path d="M0,0 L1,2 L-1,2 L-1,8 L1,9 L0,6 L3,5 L6,5 L6,2 L11,2 L9,4 L8,8 L5,9 L7,9 L7,11 L3,13 L3,15 L-4,16 L-5,14 L-13,15 L-14,18 L-16,18 L-16,16 L-19,13 L-10,5 L-6,2 Z " fill="#4D4D4D" transform="translate(494,316)"/>
<path d="M0,0 L10,0 L15,1 L13,3 L11,7 L8,7 L9,9 L6,9 L4,11 L2,12 L0,16 L-4,14 L-3,9 L-5,11 L-7,13 L-9,10 L-12,10 L-13,6 L-11,6 L-11,4 L-15,2 L-9,2 L-9,5 L-6,5 L-6,3 Z " fill="#545453" transform="translate(563,293)"/>
<path d="M0,0 L2,1 L1,3 Z M-2,2 L1,4 L1,5 L6,4 L7,10 L5,18 L7,17 L8,21 L8,41 L7,41 L7,25 L-1,23 L-3,21 L-3,18 L-6,17 L-3,13 L-5,13 L-6,10 L-2,9 L-5,6 L-3,6 Z " fill="#616161" transform="translate(550,219)"/>
<path d="M0,0 L2,0 L6,5 L5,7 L0,8 L-1,14 L-6,12 L-7,15 L-9,17 L-8,21 L-4,20 L-6,27 L-10,28 L-14,29 L-16,30 L-15,22 L-9,7 L-5,3 L-3,1 Z M-12,26 Z " fill="#3A3A3A" transform="translate(449,369)"/>
<path d="M0,0 L19,0 L31,2 L31,3 L26,3 L26,5 L20,5 L18,4 L16,8 L11,9 L12,12 L10,13 L9,13 L6,13 L5,14 L2,16 L1,19 L-1,15 L1,9 L6,10 L5,7 L4,6 L-1,5 L2,2 L0,2 Z " fill="#4E4E4C" transform="translate(579,293)"/>
<path d="M0,0 L5,1 L6,6 L1,8 L0,13 L-2,13 L-3,15 L-1,15 L-3,20 L-6,21 L-6,23 L-10,22 L-11,18 L-16,17 L-18,19 L-17,12 L-23,13 L-21,12 L-21,10 L-19,10 L-18,5 L-16,5 L-16,9 L-18,9 L-18,11 L-13,8 L-10,11 L-10,14 L-8,10 L-4,7 L-2,4 L0,6 L2,6 L1,2 Z M-10,9 Z " fill="#3B3B3B" transform="translate(555,322)"/>
<path d="M0,0 L1,2 L-2,2 L-2,5 L2,4 L5,5 L6,2 L7,5 L11,4 L12,6 L14,6 L14,8 L18,9 L13,10 L11,12 L9,13 L7,17 L6,14 L7,12 L-9,12 L-11,13 L-11,10 L-13,12 L-14,8 L-11,5 L-8,5 L-5,4 L-5,1 Z " fill="#797A77" transform="translate(482,222)"/>
<path d="M0,0 L4,2 L5,5 L4,7 L1,9 L3,12 L10,6 L12,7 L10,10 L8,10 L9,17 L5,18 L-4,18 L-5,16 L-3,14 L-2,11 L-6,13 L-6,11 L-4,11 L-6,9 L-9,10 L-14,8 L-13,4 L-10,5 L-7,3 L1,3 Z M-9,12 L-6,13 L-7,15 Z " fill="#6B6A6A" transform="translate(444,245)"/>
<path d="M0,0 L0,3 L1,8 L-1,8 L-1,14 L-5,15 L-5,19 L-9,21 L-8,26 L-14,27 L-14,25 L-16,25 L-17,27 L-19,22 L-8,9 L-1,1 Z " fill="#434343" transform="translate(326,298)"/>
<path d="M0,0 L5,0 L5,2 L9,1 L10,4 L12,6 L10,6 L10,8 L5,8 L6,5 L2,4 L2,3 L0,3 L0,8 L-3,8 L-4,13 L-7,14 L-9,16 L-11,10 L-11,6 L-13,7 L-13,11 L-20,11 L-14,3 L-9,1 L-6,3 L-7,5 L-2,1 Z " fill="#484848" transform="translate(485,329)"/>
<path d="M0,0 L3,1 L3,3 L2,11 L4,12 L3,15 L-1,13 L-2,15 L-5,15 L-4,17 L-9,19 L-10,16 L-13,15 L-13,10 L-14,7 L-12,6 L-10,7 L-9,4 L-6,4 L-2,3 L0,2 Z " fill="#575757" transform="translate(437,264)"/>
<path d="M0,0 L7,0 L5,1 L6,8 L13,7 L14,4 L17,5 L16,9 L13,12 L10,13 L12,15 L11,16 L-1,16 L-2,11 L0,4 L-3,5 L-3,3 L0,1 Z " fill="#545454" transform="translate(510,257)"/>
<path d="M0,0 L2,1 L2,3 L0,3 L0,5 L3,7 L0,9 L7,10 L6,17 L2,17 L-2,16 L-4,19 L-8,20 L-9,18 L-6,15 L-9,16 L-13,15 L-10,12 L-8,7 L-5,6 L-4,3 L-3,5 Z " fill="#6B6B6A" transform="translate(492,233)"/>
<path d="M0,0 L8,0 L14,3 L12,4 L11,10 L8,7 L4,9 L3,11 L-3,10 L-5,15 L-3,16 L-6,16 L-8,10 L-12,12 L-13,10 L-12,8 L-8,8 L-8,6 L-6,6 L-6,4 L0,3 L2,6 Z " fill="#3A3A3A" transform="translate(645,311)"/>
<path d="M0,0 L7,0 L11,4 L14,5 L14,8 L-3,12 L-8,12 L-7,8 L-4,8 L-3,5 L-6,5 L-6,2 Z M-8,4 L-6,6 L-8,6 Z " fill="#565656" transform="translate(489,267)"/>
<path d="M0,0 L3,1 L2,6 L0,10 L-4,13 L-2,17 L-6,17 L-7,14 L-9,14 L-10,16 L-13,17 L-16,20 L-16,17 L-9,4 L-2,4 L-3,3 L-3,1 Z " fill="#3D3D3D" transform="translate(458,355)"/>
<path d="M0,0 L3,2 L0,4 L-1,8 L-6,10 L-8,10 L-11,13 L-16,11 L-18,9 L-20,11 L-24,11 L-23,6 L-25,6 L-24,4 L-21,5 L-17,3 L-16,1 L-12,1 L-11,4 L-10,4 L-3,3 L0,2 Z " fill="#7A7A7A" transform="translate(465,225)"/>
<path d="M0,0 L2,0 L2,2 L4,3 L4,6 L5,7 L3,11 L6,10 L10,14 L6,15 L4,13 L0,15 L-4,13 L-7,16 L-9,16 L-8,12 L-11,9 L-8,8 L-6,4 L-3,5 L-2,2 L0,2 Z " fill="#3D3D3D" transform="translate(526,333)"/>
<path d="M0,0 L2,1 L3,2 L5,2 L5,5 L8,4 L9,7 L1,8 L4,11 L1,14 L-1,14 L-4,17 L0,18 L-4,20 L-6,18 L-5,15 L-10,17 L-11,15 L-2,2 Z " fill="#3D3D3D" transform="translate(307,321)"/>
<path d="M0,0 L4,0 L5,3 L0,2 L0,5 L-5,6 L-6,11 L-4,12 L-6,14 L-8,12 L-10,16 L-15,16 L-15,19 L-20,21 L-20,19 L-24,22 L-26,21 L-11,7 L-6,3 Z " fill="#575757" transform="translate(355,273)"/>
<path d="M0,0 L2,1 L1,6 L-1,6 L-1,8 L-6,7 L-7,11 L-9,16 L-8,19 L-10,19 L-10,22 L-14,21 L-18,15 L-20,13 L-14,8 L-12,8 L-12,10 L-10,10 L-9,7 L-9,4 L-7,3 L-7,5 L-2,4 Z M-16,14 L-14,16 L-14,14 Z " fill="#454545" transform="translate(347,284)"/>
<path d="M0,0 L8,3 L7,5 L12,5 L15,7 L14,10 L11,9 L6,12 L4,14 L4,12 L0,10 L1,8 L-1,8 L-2,11 L-7,10 L-6,6 L-3,3 L-1,3 Z " fill="#626162" transform="translate(392,258)"/>
<path d="M0,0 L2,1 L2,3 L0,3 L1,5 L12,5 L10,10 L11,12 L6,12 L5,15 L2,13 L2,12 L-4,14 L-8,5 L-2,4 Z " fill="#616160" transform="translate(467,247)"/>
<path d="M0,0 L5,0 L9,1 L13,0 L15,1 L14,5 L10,7 L4,5 L2,10 L1,11 L-5,11 L-2,9 L0,9 L0,7 L-12,9 L-8,5 Z " fill="#6D6D6D" transform="translate(388,248)"/>
<path d="M0,0 L2,0 L4,4 L6,4 L8,2 L11,5 L11,3 L16,4 L14,9 L16,10 L13,11 L12,13 L8,12 L7,14 L3,16 L3,12 L3,11 L8,11 L4,10 L1,11 L1,8 L0,7 L-3,4 L-3,2 L0,2 Z M12,4 Z M8,5 L9,7 Z M3,1 L5,2 L3,3 Z " fill="#3D3D3D" transform="translate(467,344)"/>
<path d="M0,0 L6,1 L12,2 L11,8 L8,9 L6,6 L6,8 L3,9 L3,14 L0,13 L-1,11 L-5,12 L-5,10 L-2,10 L-5,8 L-4,4 L-1,3 Z M-8,11 L-4,13 L-5,15 L-8,14 Z " fill="#5C5C5C" transform="translate(365,266)"/>
<path d="M0,0 L2,1 L1,3 L6,4 L4,7 L4,10 L-3,11 L-9,10 L-11,14 L-16,16 L-22,19 L-24,18 L-7,5 Z " fill="#696969" transform="translate(374,257)"/>
<path d="M0,0 L3,0 L4,3 L9,2 L11,10 L9,10 L9,12 L7,11 L8,8 L6,8 L6,10 L2,11 L2,13 L-3,12 L-6,13 L-8,12 L-6,8 L-5,8 L-4,5 L0,6 L1,2 Z " fill="#4A4A49" transform="translate(545,309)"/>
<path d="M0,0 L2,2 L5,3 L3,3 L3,6 L0,6 L0,8 L2,9 L-1,11 L1,13 L-3,14 L-4,16 L-9,16 L-6,18 L-8,20 L-14,19 L-10,12 L-1,1 Z " fill="#4F4F4F" transform="translate(464,340)"/>
<path d="M0,0 L4,1 L2,1 L1,5 L-1,4 L0,2 L-2,4 L0,8 L-4,11 L-7,7 L-7,9 L-11,10 L-12,10 L-17,11 L-17,8 L-20,9 L-21,5 Z " fill="#8E8E8E" transform="translate(478,214)"/>
<path d="M0,0 L3,2 L2,4 L-1,3 Z M-3,3 L0,5 L2,13 L5,19 L7,20 L4,23 L0,23 L-3,20 L-5,19 L-4,17 L-5,13 L-7,9 L-5,7 L-3,5 Z " fill="#545454" transform="translate(424,266)"/>
<path d="M0,0 L2,3 L4,10 L7,12 L8,16 L6,16 L7,19 L5,19 L4,17 L1,18 L0,22 L-3,23 L-4,19 L-3,15 L-5,14 L-3,14 L-4,11 L0,9 L-5,4 L-4,2 L0,4 Z M3,4 L5,5 L3,6 Z " fill="#514F4F" transform="translate(388,273)"/>
<path d="M0,0 L4,3 L4,9 L2,9 L4,18 L3,22 L3,25 L1,25 L3,27 L5,28 L3,33 L1,33 L2,37 L1,39 L3,40 L1,40 L2,47 L0,49 Z " fill="#C2C2C2" transform="translate(558,758)"/>
<path d="M0,0 L3,2 L3,3 L4,9 L6,10 L6,12 L2,13 L2,15 L-3,16 L-7,13 L-6,8 L-7,7 L-7,5 L-1,5 L-3,3 Z M-9,3 L-7,7 L-9,8 L-10,4 Z M-10,8 Z " fill="#505050" transform="translate(474,266)"/>
<path d="M0,0 L1,2 L3,2 L4,0 L9,1 L9,5 L11,5 L11,7 L14,6 L14,9 L5,12 L1,11 L-1,10 L-1,3 Z M4,2 L5,4 L6,2 Z " fill="#505050" transform="translate(447,276)"/>
<path d="M0,0 L3,4 L3,7 L5,9 L6,12 L4,12 L4,14 L2,14 L2,17 L1,18 L1,20 L-3,21 L-4,19 L-3,16 L-1,16 L-2,11 L-4,9 L-3,7 L-1,7 L-1,4 L-4,7 L-9,11 L-10,6 L-13,5 L-9,4 L-9,6 L-1,1 Z " fill="#616060" transform="translate(455,248)"/>
<path d="M0,0 L3,2 L4,9 L2,12 L0,11 L-1,12 L-3,14 L-3,11 L-8,11 L-9,14 L-15,13 L-14,11 L-13,10 L-12,7 L-4,8 L-6,4 L-3,5 L-1,1 Z " fill="#5C5B5B" transform="translate(550,240)"/>
<path d="M0,0 L16,0 L12,2 L7,6 L0,9 L0,12 L-5,13 L-6,10 L-3,7 L-1,8 L-2,3 L0,3 L0,6 L1,5 L1,3 L-8,3 L-16,2 L-16,1 Z " fill="#9C9C9B" transform="translate(516,210)"/>
<path d="M0,0 L3,3 L4,5 L0,4 L-1,1 Z M-4,4 L1,5 L1,7 L-1,7 L1,14 L1,22 L-1,22 L-3,17 L-4,19 L-7,14 L-7,12 L-9,12 L-9,8 L-4,7 Z " fill="#555455" transform="translate(359,271)"/>
<path d="M0,0 L4,1 L5,9 L4,13 L0,15 L-2,19 L-8,22 L-8,17 L-4,15 L-4,12 L-2,12 L-1,8 L0,1 Z " fill="#3A3A3A" transform="translate(353,314)"/>
<path d="M0,0 L4,3 L8,1 L9,4 L6,9 L9,9 L8,13 L2,15 L1,17 L1,11 L3,8 L1,8 L0,11 L-3,11 L-3,9 L-1,8 L0,5 L-4,6 L-1,3 Z " fill="#494948" transform="translate(568,300)"/>
<path d="M0,0 L10,0 L15,1 L13,3 L11,7 L8,7 L9,9 L4,8 L4,6 L0,5 L-1,7 L-2,4 L-4,3 L-3,1 Z " fill="#545453" transform="translate(563,293)"/>
<path d="M0,0 L2,1 L1,3 Z M-2,2 L1,4 L1,5 L6,4 L7,10 L7,12 L4,13 L3,17 L1,14 L2,12 L-5,13 L-6,10 L-2,9 L-5,6 L-3,6 Z " fill="#666764" transform="translate(550,219)"/>
<path d="M0,0 L4,2 L5,4 L10,3 L14,7 L12,7 L12,10 L9,10 L7,14 L3,13 L3,9 L-1,5 Z " fill="#474848" transform="translate(400,289)"/>
<path d="M0,0 L2,1 L1,4 L-4,5 L-4,7 L-8,6 L-9,8 L-6,9 L-8,9 L-8,11 L-14,11 L-15,13 L-15,11 L-19,12 L-23,10 Z " fill="#808080" transform="translate(425,230)"/>
<path d="M0,0 L2,1 L3,6 L7,5 L5,12 L1,13 L-3,14 L-5,15 L-4,7 L-2,1 Z M-1,11 Z " fill="#313131" transform="translate(438,384)"/>
<path d="M0,0 L6,2 L5,4 L9,5 L9,7 L5,7 L6,10 L-2,12 L-4,10 L-6,11 L-6,6 L-1,3 L1,3 Z " fill="#6C6C6C" transform="translate(471,238)"/>
<path d="M0,0 L18,0 L18,2 L22,3 L16,4 L16,1 L15,6 L11,7 L11,5 L7,6 L7,3 L1,7 L-1,3 L1,2 L-2,1 Z " fill="#828282" transform="translate(500,212)"/>
<path d="M0,0 L1,2 L-2,2 L-3,7 L0,7 L0,10 L4,9 L4,11 L-9,12 L-11,13 L-11,10 L-13,12 L-14,8 L-11,5 L-8,5 L-5,4 L-5,1 Z " fill="#7B7B7A" transform="translate(482,222)"/>
<path d="M0,0 L5,0 L6,2 L7,0 L12,0 L13,3 L12,5 L17,4 L18,7 L14,8 L10,6 L8,4 L8,6 L3,4 L4,7 L-4,7 L-3,1 L0,4 Z " fill="#7A7A79" transform="translate(497,222)"/>
<path d="M0,0 L11,3 L14,5 L9,6 L5,5 L4,7 L2,7 L2,10 L-4,8 L-6,7 L-4,2 Z " fill="#484947" transform="translate(622,299)"/>
<path d="M0,0 L4,1 L5,5 L5,14 L0,14 L1,12 L4,13 L2,8 L-2,9 L-4,12 L-7,12 L-7,10 L-5,10 L-8,3 L-3,2 L-1,1 Z " fill="#505050" transform="translate(553,255)"/>
<path d="M0,0 L3,2 L0,3 L5,4 L6,4 L11,6 L10,10 L7,12 L5,17 L2,14 L4,11 L1,8 L-3,3 L-2,1 L0,2 Z " fill="#404140" transform="translate(541,320)"/>
<path d="M0,0 L2,2 L0,3 L0,7 L3,9 L3,11 L-7,13 L-8,11 L-10,11 L-8,7 L-6,3 Z " fill="#5A5A5A" transform="translate(468,272)"/>
<path d="M0,0 L5,0 L5,3 L7,3 L7,6 L11,6 L12,8 L14,8 L12,12 L12,10 L6,11 L4,9 L5,8 L0,6 L-1,10 L-5,9 Z " fill="#696969" transform="translate(392,253)"/>
<path d="M0,0 L5,4 L5,6 L7,6 L7,11 L10,12 L10,14 L3,14 L0,11 L3,10 L2,8 L-5,7 L-4,5 L-7,3 L-1,1 Z " fill="#777574" transform="translate(447,233)"/>
<path d="M0,0 L2,4 L2,1 L7,1 L6,7 L5,9 L-1,11 L-8,12 L-4,5 Z " fill="#676765" transform="translate(537,231)"/>
<path d="M0,0 L1,3 L0,8 L4,9 L-1,14 L-2,12 L-4,12 L-4,10 L-7,9 L-9,3 Z " fill="#424242" transform="translate(534,326)"/>
<path d="M0,0 L2,0 L2,2 L4,3 L3,5 L4,12 L6,12 L6,14 L2,13 L-2,13 L-4,11 L-3,9 L-7,8 L-7,5 L0,4 L1,2 L-1,1 Z M-2,10 L-1,12 L0,10 Z M3,14 Z " fill="#454545" transform="translate(472,335)"/>
<path d="M0,0 L2,1 L0,4 L-2,4 L-1,11 L-5,12 L-14,12 L-15,10 L-13,8 L-12,6 L-8,5 L-6,5 Z " fill="#626262" transform="translate(454,251)"/>
<path d="M0,0 L2,3 L-4,19 L-7,29 L-8,29 L-7,20 L-3,1 Z " fill="#3F3F3F" transform="translate(262,424)"/>
<path d="M0,0 L3,4 L1,5 L3,12 L-3,13 L-3,11 L-5,11 L-6,13 L-8,8 L-2,1 Z " fill="#3E3E3E" transform="translate(315,312)"/>
<path d="M0,0 L22,0 L22,1 L1,2 L0,4 L-5,4 L-5,6 L-8,6 L-8,3 L-15,3 L-15,5 L-13,5 L-13,7 L-20,6 L-20,3 Z " fill="#707070" transform="translate(562,292)"/>
<path d="M0,0 L3,0 L4,4 L10,3 L11,0 L14,1 L13,5 L10,8 L7,9 L9,11 L3,11 L3,9 L-1,7 L1,2 Z " fill="#4F4F4F" transform="translate(513,261)"/>
<path d="M0,0 L6,0 L8,1 L8,3 L6,3 L7,7 L1,7 L-3,10 L-6,9 L-7,5 L0,4 Z " fill="#717170" transform="translate(481,233)"/>
<path d="M0,0 L2,2 L3,5 L6,7 L3,8 L3,13 L2,10 L0,10 L-1,12 L-4,13 L-7,16 L-7,13 Z " fill="#464646" transform="translate(449,359)"/>
<path d="M0,0 L7,3 L5,4 L4,10 L1,7 L-3,9 L-4,11 L-9,10 L-4,4 L-2,4 Z " fill="#3E3E3B" transform="translate(652,311)"/>
<path d="M0,0 L5,2 L8,4 L5,6 L4,9 L-1,9 L-1,12 L-4,11 L-3,5 L-6,5 L-3,2 Z " fill="#555555" transform="translate(496,313)"/>
<path d="M0,0 L6,2 L7,0 L9,4 L6,4 L8,11 L3,11 L2,9 L-2,7 L-3,3 Z " fill="#6A6A6A" transform="translate(520,233)"/>
<path d="M0,0 L7,1 L9,3 L4,4 L5,9 L3,8 L2,7 L-5,8 L-6,3 L-4,2 L-1,2 Z " fill="#3E3E3E" transform="translate(642,308)"/>
<path d="M0,0 L7,1 L5,5 L3,4 L2,6 L-2,5 L-3,7 L-5,5 L-8,6 L-14,8 L-16,6 Z " fill="#666666" transform="translate(530,298)"/>
<path d="M0,0 L8,0 L20,2 L20,3 L15,3 L15,5 L9,5 L7,4 L6,7 L5,5 L-1,3 Z " fill="#545453" transform="translate(590,293)"/>
<path d="M0,0 L4,0 L2,4 L0,4 L-3,10 L-10,11 L-11,9 L-7,8 L-9,6 L-12,7 L-12,4 L-1,1 Z " fill="#8B8B8B" transform="translate(453,220)"/>
<path d="M0,0 L6,1 L7,4 L4,6 L2,6 L-1,9 L3,10 L-1,12 L-3,10 L-2,7 L-7,9 L-8,7 L-7,5 L-1,2 Z " fill="#3C3C3C" transform="translate(304,329)"/>
<path d="M0,0 L2,1 L0,6 L-6,8 L-5,13 L-7,13 L-8,16 L-10,16 L-10,14 L-13,11 L-4,3 Z " fill="#555555" transform="translate(488,318)"/>
<path d="M0,0 L1,2 L-1,2 L-1,4 L2,4 L3,4 L5,1 L7,2 L7,4 L5,8 L3,8 L2,11 L0,10 L0,9 L-3,8 L-5,4 L-5,2 Z M-2,10 L0,12 L-1,14 L-3,14 Z " fill="#444442" transform="translate(611,301)"/>
<path d="M0,0 L2,2 L-1,6 L-3,13 L-4,11 L-6,11 L-5,14 L-10,15 L-11,11 L-8,11 L-7,7 L-3,5 L-2,1 Z " fill="#3C3C3C" transform="translate(568,322)"/>
<path d="M0,0 L4,2 L6,4 L4,8 L2,13 L1,10 L0,8 L-2,9 L-3,8 L-6,9 L-7,12 L-9,11 L-6,4 L-3,3 L-3,5 L-1,5 L-1,3 L1,3 Z M-10,12 Z " fill="#4F4F4F" transform="translate(347,287)"/>
<path d="M0,0 L4,0 L5,4 L-1,6 L-4,9 L-13,10 L-14,8 L-5,4 Z " fill="#7D7D7C" transform="translate(528,211)"/>
<path d="M0,0 L22,0 L21,2 L13,2 L9,6 L7,4 L3,6 L0,1 Z " fill="#D2D2D1" transform="translate(528,807)"/>
<path d="M0,0 L2,0 L2,2 L5,3 L1,13 L-3,9 L-6,5 Z M-2,6 L0,8 L0,6 Z " fill="#494949" transform="translate(333,292)"/>
<path d="M0,0 L1,2 L5,4 L0,6 L1,8 L-2,12 L-5,10 L-3,8 L-9,8 L-8,5 L-10,3 L-8,2 L-4,3 L-4,5 L-2,4 L-3,2 Z " fill="#5F5F5F" transform="translate(499,246)"/>
<path d="M0,0 L2,1 L1,4 L8,3 L9,7 L5,8 L2,8 L-2,11 L-6,9 L-6,7 L-2,4 L-2,1 Z " fill="#494949" transform="translate(529,310)"/>
<path d="M0,0 L4,2 L2,8 L4,8 L5,4 L7,1 L10,3 L7,5 L8,6 L10,7 L10,9 L6,10 L3,9 L2,12 L-2,11 L0,10 L-1,8 L0,4 L-2,3 L-2,1 Z " fill="#696868" transform="translate(402,246)"/>
<path d="M0,0 L2,0 L4,4 L6,4 L8,2 L9,5 L7,10 L1,11 L1,8 L0,7 L-3,4 L-3,2 L0,2 Z M3,1 L5,2 L3,3 Z " fill="#414141" transform="translate(467,344)"/>
<path d="M0,0 L2,2 L0,2 Z M-4,1 L0,2 L2,5 L1,10 L-6,11 L-6,4 Z " fill="#333432" transform="translate(453,375)"/>
<path d="M0,0 L3,3 L7,3 L7,8 L4,8 L2,10 L1,6 L-2,7 L-4,9 L-6,7 L-2,1 Z " fill="#3B3B3B" transform="translate(577,320)"/>
<path d="M0,0 L6,0 L11,2 L14,4 L11,7 L13,12 L9,11 L7,7 L7,4 L5,4 L1,5 Z " fill="#666564" transform="translate(449,246)"/>
<path d="M0,0 L2,3 L0,7 L3,9 L3,11 L1,12 L-1,13 L-9,12 L-6,9 L-5,8 L-4,4 Z " fill="#3A3A3A" transform="translate(321,314)"/>
<path d="M0,0 L4,0 L5,3 L0,2 L0,5 L-5,6 L-6,10 L-12,9 L-7,4 Z " fill="#5E5E5E" transform="translate(355,273)"/>
<path d="M0,0 L1,3 L4,4 L1,9 L-1,9 L-1,11 L-4,10 L-6,8 L-6,5 L-1,4 Z M4,3 L7,4 L4,4 Z " fill="#7A7A7A" transform="translate(427,230)"/>
<path d="M0,0 L7,0 L7,2 L10,3 L10,5 L6,6 L5,6 L0,7 L0,4 L-3,5 L-4,1 Z " fill="#868686" transform="translate(461,218)"/>
<path d="M0,0 L1,0 L1,5 L4,6 L2,11 L4,11 L4,9 L6,10 L7,12 L4,12 L4,14 L-1,13 L-1,16 L-3,15 L-2,12 L0,10 L-2,9 L1,8 L1,6 L-1,6 L-4,3 L-4,1 Z " fill="#656565" transform="translate(411,256)"/>
<path d="M0,0 L4,2 L-1,8 L-2,11 L-4,11 L-4,13 L-7,12 L-7,9 L-4,7 L-3,2 L-1,2 Z " fill="#3A3A3A" transform="translate(461,358)"/>
<path d="M0,0 L3,1 L7,3 L12,4 L13,8 L12,10 L10,9 L8,6 L3,8 L-1,5 Z " fill="#444543" transform="translate(567,313)"/>
<path d="M0,0 L2,0 L0,6 L-7,7 L-10,10 L-14,7 Z " fill="#686867" transform="translate(512,305)"/>
<path d="M0,0 L6,1 L4,3 L3,8 L2,10 L-3,9 L-4,6 L-3,4 L0,4 Z " fill="#727272" transform="translate(524,225)"/>
<path d="M0,0 L4,3 L3,9 L-3,10 L-3,8 L-5,8 L-5,6 L-2,6 L-2,1 Z " fill="#454545" transform="translate(487,331)"/>
<path d="M0,0 L2,0 L4,5 L6,6 L3,9 L-1,9 L-4,6 L-6,5 L-5,3 Z " fill="#505050" transform="translate(425,280)"/>
<path d="M0,0 L5,0 L6,3 L9,2 L7,6 L4,6 L3,8 L2,6 L0,6 L-2,3 L-5,3 L-4,1 Z " fill="#696969" transform="translate(513,241)"/>
<path d="M0,0 L2,0 L2,3 L4,4 L4,6 L1,8 L-2,9 L-6,8 L-4,3 L-2,3 Z M-3,9 Z " fill="#414141" transform="translate(482,339)"/>
<path d="M0,0 L8,3 L4,7 L0,8 L-2,9 L-3,7 L-5,7 L-5,5 L-2,5 Z " fill="#444444" transform="translate(637,304)"/>
<path d="M0,0 L4,0 L4,2 L2,2 L3,3 L5,4 L7,4 L6,8 L3,8 L5,10 L0,12 L0,6 L-1,5 L-3,7 L-2,3 Z " fill="#575756" transform="translate(499,255)"/>
<path d="M0,0 L5,1 L4,5 L2,4 L1,6 L-1,5 L-1,7 L1,8 L1,10 L-5,10 L-6,7 L-5,5 L1,2 Z M3,5 Z " fill="#3E3E3E" transform="translate(614,314)"/>
<path d="M0,0 L4,0 L6,2 L8,0 L8,2 L12,4 L8,6 L7,4 L0,7 L-1,3 Z " fill="#505050" transform="translate(365,289)"/>
<path d="M0,0 L2,1 L6,2 L6,7 L1,7 L1,10 L-4,5 L-2,4 L-2,1 Z " fill="#5A5A5A" transform="translate(412,268)"/>
<path d="M0,0 L2,0 L3,4 L-1,5 L-1,7 L-12,9 L-8,5 Z " fill="#777777" transform="translate(388,248)"/>
<path d="M0,0 L5,1 L2,2 L5,3 L4,8 L2,7 L1,6 L-3,7 L-4,4 L-6,4 L-6,2 L-1,1 Z " fill="#5B5B59" transform="translate(520,303)"/>
<path d="M0,0 L11,0 L8,6 L-1,5 L2,2 L0,2 Z " fill="#50504F" transform="translate(579,293)"/>
<path d="M0,0 L10,2 L10,4 L12,5 L7,7 L2,6 L2,3 Z M11,1 L15,3 L12,4 Z " fill="#4A4A4A" transform="translate(427,283)"/>
<path d="M0,0 L1,2 L1,5 L-4,9 L-7,9 L-11,7 L-6,3 Z " fill="#7A7A7A" transform="translate(401,241)"/>
<path d="M0,0 L2,0 L1,5 L6,7 L4,8 L3,11 L-2,13 L-4,10 L0,8 L-2,7 L-1,1 Z M-3,13 Z " fill="#696969" transform="translate(502,241)"/>
<path d="M0,0 L8,1 L7,8 L3,8 L0,7 L1,4 L1,3 Z " fill="#666666" transform="translate(491,242)"/>
<path d="M0,0 L6,0 L6,2 L8,2 L7,4 L5,7 L3,10 L1,10 L-1,12 L-3,6 L1,6 L3,2 Z " fill="#51514F" transform="translate(573,293)"/>
<path d="M0,0 L4,1 L7,4 L5,4 L5,7 L2,7 L0,11 L-4,10 L-4,8 L1,5 L1,4 L-4,3 L-2,1 Z " fill="#434444" transform="translate(407,292)"/>
<path d="M0,0 L1,2 L-1,2 L-2,7 L-14,13 L-16,12 Z " fill="#707070" transform="translate(366,263)"/>
<path d="M0,0 L1,2 L4,3 L6,4 L5,7 L3,7 L2,11 L-6,8 L-3,5 L-1,6 L0,7 L-1,2 Z " fill="#5B5B5B" transform="translate(406,261)"/>
<path d="M0,0 L10,0 L12,1 L11,4 L9,3 L10,6 L2,9 L0,7 L5,3 L5,2 L0,1 Z " fill="#8A8A89" transform="translate(490,212)"/>
<path d="M0,0 L1,2 L-1,2 L-2,9 L-8,11 L-9,8 L-6,5 L-2,1 Z M-10,9 Z M-12,10 L-10,10 L-10,12 L-12,12 Z " fill="#535353" transform="translate(494,316)"/>
<path d="M0,0 L3,3 L4,5 L-1,8 L-2,11 L-4,11 L-4,7 L-2,7 L-2,5 L-8,3 L-7,1 L-1,1 Z " fill="#737272" transform="translate(408,243)"/>
<path d="M0,0 L2,1 L1,4 L-4,5 L-4,7 L-8,6 L-9,8 L-14,7 L-10,4 Z " fill="#8A8A8A" transform="translate(425,230)"/>
<path d="M0,0 L3,2 L4,3 L10,6 L10,9 L10,11 L8,11 L8,9 L3,9 L2,7 L-2,5 Z " fill="#797977" transform="translate(532,216)"/>
<path d="M0,0 L3,1 L2,5 L0,5 L1,14 L-1,16 L-4,16 L-3,11 L-5,10 L-3,10 L-1,4 Z " fill="#5B5A59" transform="translate(452,259)"/>
<path d="M0,0 L3,4 L3,8 L-5,9 L-4,4 L-5,2 L0,3 Z " fill="#4A4A4A" transform="translate(554,260)"/>
<path d="M0,0 L3,2 L5,7 L5,10 L0,10 L0,8 L-3,7 L-1,6 L-2,4 Z " fill="#6F6F6F" transform="translate(422,238)"/>
<path d="M0,0 L2,0 L2,2 L5,3 L1,6 L-7,8 L-8,6 L-6,6 L-5,3 L-2,4 L-2,1 Z " fill="#525252" transform="translate(414,295)"/>
<path d="M0,0 L2,0 L3,7 L2,9 L5,10 L1,11 L-2,10 L-3,12 L-3,5 L-1,4 Z " fill="#585856" transform="translate(469,261)"/>
<path d="M0,0 L2,1 L1,5 L0,6 L2,7 L3,5 L4,8 L2,11 L0,11 L-3,7 L-3,4 L-6,3 L-4,3 L-4,1 L-1,2 Z M2,2 Z " fill="#616161" transform="translate(530,236)"/>
<path d="M0,0 L3,1 L7,5 L1,6 L0,9 L-2,9 L-2,5 L-4,8 L-5,4 L-3,4 L-2,1 Z " fill="#787878" transform="translate(524,220)"/>
<path d="M0,0 L9,5 L11,8 L7,9 L3,10 L4,5 L0,4 L-1,2 Z " fill="#3A3A39" transform="translate(667,320)"/>
<path d="M0,0 L2,0 L2,27 L-1,26 L-2,23 L1,16 L-1,15 L1,15 Z " fill="#717170" transform="translate(556,213)"/>
<path d="M0,0 L4,0 L3,2 L0,6 L-3,7 L-5,8 L-7,7 L-8,3 Z " fill="#8B8B8B" transform="translate(435,226)"/>
<path d="M0,0 L9,0 L9,2 L13,3 L7,4 L7,1 L6,6 L2,7 L2,4 L0,3 Z " fill="#7D7D7C" transform="translate(509,212)"/>
<path d="M0,0 L3,1 L3,7 L1,7 L3,16 L2,20 L2,23 L0,23 Z " fill="#D9D9D8" transform="translate(559,760)"/>
<path d="M0,0 L0,3 L1,8 L-1,8 L-1,14 L-3,14 L-4,11 L-3,9 L-7,7 Z " fill="#4C4C4C" transform="translate(326,298)"/>
<path d="M0,0 L5,2 L5,4 L8,5 L6,5 L5,7 L4,8 L0,8 L-3,8 L-2,3 L0,3 Z " fill="#767674" transform="translate(458,236)"/>
<path d="M0,0 L1,2 L3,2 L2,4 L-3,4 L0,6 L-2,8 L-8,7 L-5,2 Z " fill="#484848" transform="translate(458,352)"/>
<path d="M0,0 L6,1 L5,7 L2,8 L-2,4 L-2,1 Z " fill="#626262" transform="translate(371,267)"/>
<path d="M0,0 L5,5 L1,8 L-5,7 L-4,5 L-7,3 L-1,1 Z " fill="#707070" transform="translate(447,233)"/>
<path d="M0,0 L0,3 L0,5 L-2,6 L-2,10 L-9,10 L-3,2 Z " fill="#555555" transform="translate(474,330)"/>
<path d="M0,0 L7,1 L7,4 L5,3 L4,4 L0,5 L-1,7 L-2,4 L-4,3 L-3,1 Z " fill="#595958" transform="translate(563,293)"/>
<path d="M0,0 L2,4 L2,24 L1,24 L1,8 L-3,6 L-2,3 L0,3 Z " fill="#656565" transform="translate(556,236)"/>
<path d="M0,0 L2,4 L6,9 L-1,10 L-1,5 L-5,4 L-5,2 L-1,2 Z " fill="#777776" transform="translate(510,217)"/>
<path d="M0,0 L2,0 L1,4 L-5,15 L-8,15 L-8,12 L-6,9 L-3,9 Z " fill="#282828" transform="translate(269,411)"/>
<path d="M0,0 L3,2 L2,6 L2,9 L-3,14 L-2,6 Z " fill="#343434" transform="translate(436,385)"/>
<path d="M0,0 L5,1 L6,10 L4,10 L2,5 L1,7 L-1,3 Z " fill="#515051" transform="translate(354,283)"/>
<path d="M0,0 L4,2 L2,3 L3,5 L6,7 L-3,7 L-3,4 L-2,1 Z " fill="#515151" transform="translate(529,264)"/>
<path d="M0,0 L12,0 L12,3 L7,4 L4,4 L-1,3 Z " fill="#787878" transform="translate(402,241)"/>
<path d="M0,0 L5,1 L11,8 L10,10 L0,3 Z " fill="#3A3A38" transform="translate(708,361)"/>
<path d="M0,0 L4,2 L4,9 L-1,10 L-1,7 L-2,3 Z " fill="#4C4C4C" transform="translate(475,330)"/>
<path d="M0,0 L3,1 L4,5 L7,4 L7,6 L3,10 L1,10 L0,12 L-1,9 L1,4 L-2,5 L-2,3 L1,3 Z " fill="#4F4F4D" transform="translate(524,302)"/>
<path d="M0,0 L5,1 L5,3 L2,3 L1,7 L-2,8 L-4,3 L-3,1 Z " fill="#515051" transform="translate(381,278)"/>
<path d="M0,0 L4,0 L2,5 L3,7 L-2,6 L-4,5 L-4,2 Z " fill="#5E5F5D" transform="translate(475,252)"/>
<path d="M0,0 L2,1 L2,5 L-2,6 L-6,9 L-8,8 L-4,2 Z " fill="#434343" transform="translate(306,325)"/>
<path d="M0,0 L2,2 L4,1 L4,7 L2,8 L0,7 L-1,9 L-3,4 Z " fill="#464646" transform="translate(310,316)"/>
<path d="M0,0 L3,1 L3,3 L7,2 L8,7 L10,8 L5,9 L3,6 L4,4 L0,3 Z " fill="#515050" transform="translate(395,281)"/>
<path d="M0,0 L4,4 L2,10 L-1,7 L-1,9 L-3,8 L-2,6 L-3,5 L-3,3 Z " fill="#606160" transform="translate(503,251)"/>
<path d="M0,0 L3,1 L3,4 L1,4 L0,7 L-1,5 L-3,8 L-6,8 L-4,3 L-3,1 Z " fill="#4A4A49" transform="translate(519,325)"/>
<path d="M0,0 L3,1 L-2,6 L3,7 L1,10 L-3,10 L-3,7 L-6,5 Z " fill="#454545" transform="translate(359,308)"/>
<path d="M0,0 L3,1 L2,8 L-2,9 L-4,7 Z " fill="#404040" transform="translate(380,307)"/>
<path d="M0,0 L3,3 L-5,5 L-10,5 L-9,1 L-2,1 L0,2 Z " fill="#4B4B4B" transform="translate(491,274)"/>
<path d="M0,0 L2,1 L0,4 L-2,4 L-1,11 L-3,12 L-6,9 L-6,5 Z " fill="#656464" transform="translate(454,251)"/>
<path d="M0,0 L3,1 L2,8 L-1,8 L-2,5 L-4,4 Z " fill="#696867" transform="translate(424,251)"/>
<path d="M0,0 L4,0 L5,3 L4,5 L9,4 L10,7 L6,8 L2,6 L0,1 Z " fill="#7E7E7E" transform="translate(505,222)"/>
<path d="M0,0 L1,0 L1,11 L3,16 L-1,18 L-1,1 Z " fill="#E2E2E1" transform="translate(560,719)"/>
<path d="M0,0 L5,0 L8,4 L6,5 L4,3 L2,5 L-1,6 L-4,4 L0,2 Z M-3,6 L-1,6 L-2,8 Z " fill="#404040" transform="translate(321,324)"/>
<path d="M0,0 L2,1 L0,4 L3,4 L1,8 L0,7 L-1,9 L-5,8 L-3,3 Z " fill="#494949" transform="translate(359,299)"/>
<path d="M0,0 L2,1 L3,5 L-2,7 L-2,5 L-6,8 L-8,7 Z " fill="#5D5D5D" transform="translate(337,287)"/>
<path d="M0,0 L4,2 L2,2 L2,5 L-2,6 L-3,10 L-3,8 L-5,7 L-6,6 L-4,2 L0,3 Z " fill="#484847" transform="translate(504,329)"/>
<path d="M0,0 L3,3 L8,3 L9,6 L6,6 L7,9 L2,10 L2,6 L5,5 L1,5 Z " fill="#4F4F4F" transform="translate(600,297)"/>
<path d="M0,0 L5,1 L6,3 L3,12 L1,10 L3,5 L-1,4 Z " fill="#404040" transform="translate(384,300)"/>
<path d="M0,0 L6,1 L6,4 L3,6 L-2,6 L-1,1 Z " fill="#4C4C4C" transform="translate(497,270)"/>
<path d="M0,0 L4,1 L2,7 L-1,9 L-5,8 L-2,5 Z " fill="#6E6E6E" transform="translate(484,240)"/>
<path d="M0,0 L1,2 L4,2 L4,4 L6,4 L7,2 L7,5 L5,6 L6,8 L-1,6 Z " fill="#686868" transform="translate(536,223)"/>
<path d="M0,0 L4,2 L4,4 L-4,8 L-6,8 L-5,5 L-1,3 Z " fill="#525252" transform="translate(396,303)"/>
<path d="M0,0 L2,1 L1,6 L-1,6 L-1,8 L-8,6 L-8,3 L-7,5 L-2,4 Z " fill="#494949" transform="translate(347,284)"/>
<path d="M0,0 L1,0 L1,5 L-5,7 L-8,4 L-6,3 L-6,1 L-4,2 L-1,3 Z M-10,3 L-8,5 L-10,5 Z " fill="#535353" transform="translate(377,271)"/>
<path d="M0,0 L12,0 L8,2 L5,1 L4,3 L2,5 L-2,5 L-2,7 L-4,6 L-3,4 L1,4 Z " fill="#8B8B8B" transform="translate(532,211)"/>
<path d="M0,0 L4,1 L2,5 L0,7 L-3,7 L-4,4 L-4,2 L-1,3 Z " fill="#383838" transform="translate(566,331)"/>
<path d="M0,0 L2,1 L5,4 L2,5 L2,7 L-2,8 L-2,1 Z " fill="#585858" transform="translate(369,275)"/>
<path d="M0,0 L2,0 L5,5 L0,6 L-3,6 L-4,8 L-6,7 L-4,4 L-1,2 Z " fill="#626262" transform="translate(431,263)"/>
<path d="M0,0 L5,2 L8,4 L3,5 L2,5 L-2,4 L-6,5 L-3,2 Z " fill="#616161" transform="translate(496,313)"/>
<path d="M0,0 L3,3 L3,6 L-2,8 L-4,6 L-4,4 Z " fill="#777777" transform="translate(454,230)"/>
<path d="M0,0 L2,3 L0,10 L-1,8 L-3,8 L-3,10 L-5,9 Z " fill="#434343" transform="translate(293,340)"/>
<path d="M0,0 L2,1 L4,7 L1,7 L1,5 L-1,5 L-2,7 L-2,2 Z " fill="#5A5859" transform="translate(392,272)"/>
<path d="M0,0 L8,0 L5,4 L2,5 L-1,3 Z " fill="#5F5E5F" transform="translate(384,272)"/>
<path d="M0,0 L4,2 L0,6 L1,10 L-1,11 L-1,9 L-4,10 L-2,4 Z " fill="#71706E" transform="translate(422,249)"/>
<path d="M0,0 L6,0 L5,4 L3,3 L4,1 Z M0,4 L3,5 L0,6 L0,8 L-3,9 L-4,5 Z " fill="#858684" transform="translate(490,213)"/>
<path d="M0,0 L1,2 L6,2 L5,5 L3,5 L-1,9 L-2,1 Z " fill="#C4C5C2" transform="translate(586,812)"/>
<path d="M0,0 L1,2 L-3,3 L-4,5 L-8,7 L-8,3 L-8,2 Z " fill="#414141" transform="translate(478,353)"/>
<path d="M0,0 L4,4 L0,8 L-3,6 Z " fill="#3B3B3B" transform="translate(335,336)"/>
<path d="M0,0 L1,2 L5,3 L-5,9 L-4,5 L0,4 Z " fill="#444444" transform="translate(357,323)"/>
<path d="M0,0 L2,0 L2,2 L7,3 L5,4 L5,7 L2,8 L0,3 Z " fill="#424242" transform="translate(552,321)"/>
<path d="M0,0 L3,2 L2,4 L-3,6 L-6,7 L-5,2 L-4,4 L-2,1 Z " fill="#444442" transform="translate(533,319)"/>
<path d="M0,0 L3,0 L3,3 L5,4 L-1,7 L-3,4 L-1,4 Z " fill="#50504E" transform="translate(564,299)"/>
<path d="M0,0 L6,0 L5,5 L0,6 L-2,3 L1,3 Z " fill="#747473" transform="translate(549,213)"/>
<path d="M0,0 L9,1 L8,4 L3,5 L1,3 L2,2 Z " fill="#8E8E8D" transform="translate(485,213)"/>
<path d="M0,0 L2,0 L1,7 L-2,9 L-2,6 L-4,2 L-1,2 Z " fill="#444444" transform="translate(605,313)"/>
<path d="M0,0 L2,0 L1,6 L-5,5 Z " fill="#626262" transform="translate(348,277)"/>
<path d="M0,0 L3,3 L1,7 L-1,7 L-1,5 L-4,4 Z " fill="#646463" transform="translate(548,232)"/>
<path d="M0,0 L5,1 L6,6 L2,7 L-1,1 Z " fill="#CACAC8" transform="translate(686,761)"/>
<path d="M0,0 L4,1 L-1,6 L-2,3 L-6,2 Z " fill="#363636" transform="translate(590,402)"/>
<path d="M0,0 L3,1 L4,5 L2,5 L1,7 L1,5 L-3,3 L0,1 Z M5,1 L6,3 L4,2 Z " fill="#383838" transform="translate(324,326)"/>
<path d="M0,0 L4,2 L5,8 L2,6 L1,4 L-2,3 Z M4,0 L6,0 L5,2 Z " fill="#444444" transform="translate(327,298)"/>
<path d="M0,0 L2,4 L-2,6 L-6,4 L-6,2 Z " fill="#5F5F5D" transform="translate(539,296)"/>
<path d="M0,0 L4,1 L3,5 L-2,6 L-3,4 L-2,2 L0,2 Z " fill="#515151" transform="translate(491,270)"/>
<path d="M0,0 L6,0 L5,4 L-1,4 L-2,1 Z " fill="#474747" transform="translate(533,266)"/>
<path d="M0,0 L2,2 L-2,7 L-4,7 L-4,5 L-6,5 L-5,1 L-1,3 Z " fill="#676767" transform="translate(385,262)"/>
<path d="M0,0 L3,1 L1,1 L0,8 L-4,9 L-6,7 L-1,6 L-2,3 Z " fill="#70706F" transform="translate(496,234)"/>
<path d="M0,0 L7,1 L4,6 L-1,4 Z " fill="#848483" transform="translate(499,219)"/>
<path d="M0,0 L13,0 L13,1 L5,2 L1,5 L-1,4 Z " fill="#8D8D8D" transform="translate(544,212)"/>
<path d="M0,0 L1,4 L3,5 L2,9 L-3,8 L-1,3 Z " fill="#3D3D3D" transform="translate(473,360)"/>
<path d="M0,0 L2,1 L0,6 L-5,8 L-6,5 Z " fill="#646464" transform="translate(488,318)"/>
<path d="M0,0 L5,0 L6,3 L8,4 L3,6 L1,2 Z " fill="#4D4D4C" transform="translate(508,311)"/>
<path d="M0,0 L9,1 L9,2 L4,2 L4,4 L-2,4 Z " fill="#5D5D5C" transform="translate(601,294)"/>
<path d="M0,0 L3,1 L4,4 L1,4 L1,6 L-2,7 L-3,3 Z M4,1 L6,3 L4,3 Z " fill="#565656" transform="translate(438,281)"/>
<path d="M0,0 L2,0 L3,4 L1,4 L1,6 L-4,6 L-5,3 L-1,2 Z " fill="#585858" transform="translate(391,266)"/>
<path d="M0,0 L1,0 L1,5 L4,6 L1,8 L1,6 L-1,6 L-4,3 L-4,1 Z " fill="#696869" transform="translate(411,256)"/>
<path d="M0,0 L8,0 L8,2 L6,3 L-2,3 L-2,1 Z " fill="#676767" transform="translate(380,255)"/>
<path d="M0,0 L2,1 L6,0 L6,2 L2,4 L1,7 L-2,7 L-1,2 Z " fill="#7C7D7A" transform="translate(486,220)"/>
<path d="M0,0 L3,0 L3,3 L1,3 L1,6 L3,7 L-1,7 L-1,5 L-3,3 Z " fill="#C2C3C0" transform="translate(586,827)"/>
<path d="M0,0 L3,4 L1,5 L2,7 L-6,6 L-1,1 Z " fill="#454543" transform="translate(672,344)"/>
<path d="M0,0 L1,2 L5,1 L5,4 L2,7 L0,7 L-1,2 Z " fill="#3F3F3F" transform="translate(348,308)"/>
<path d="M0,0 L1,2 L-1,2 L-1,4 L1,6 L-4,7 L-5,2 Z " fill="#474847" transform="translate(611,301)"/>
<path d="M0,0 L7,1 L5,5 L3,4 L2,6 L0,5 Z " fill="#686867" transform="translate(530,298)"/>
<path d="M0,0 L5,0 L5,3 L3,5 L0,4 L-1,1 Z " fill="#4B4D4C" transform="translate(403,295)"/>
<path d="M0,0 L2,2 L8,3 L6,4 L7,7 L5,7 L4,5 L-1,6 L-2,3 Z " fill="#565454" transform="translate(388,285)"/>
<path d="M0,0 L1,3 L4,2 L5,4 L3,5 L3,8 L0,9 L-1,4 L-1,1 Z " fill="#4C4A4B" transform="translate(402,280)"/>
<path d="M0,0 L3,3 L-1,7 L-4,6 L-3,2 L0,2 Z " fill="#595657" transform="translate(386,279)"/>
<path d="M0,0 L4,1 L4,10 L-1,10 L0,8 L3,9 Z " fill="#575757" transform="translate(554,259)"/>
<path d="M0,0 L7,0 L5,1 L5,3 L0,5 L-3,5 L-3,3 L0,1 Z " fill="#575757" transform="translate(510,257)"/>
<path d="M0,0 L1,3 L0,6 L-5,7 L-5,5 L-8,6 L-8,4 L0,2 Z " fill="#60605F" transform="translate(486,245)"/>
<path d="M0,0 L2,4 L-1,3 L0,11 L-3,11 L-3,4 Z " fill="#D5D5D4" transform="translate(561,747)"/>
<path d="M0,0 L2,1 L2,6 L-2,8 L-4,5 Z " fill="#343434" transform="translate(545,351)"/>
<path d="M0,0 L6,1 L7,3 L3,6 L0,3 L-2,1 Z " fill="#3C3C3C" transform="translate(463,349)"/>
<path d="M0,0 L4,0 L6,6 L3,5 L0,5 Z " fill="#4B4B4B" transform="translate(517,315)"/>
<path d="M0,0 L4,1 L1,1 L1,3 L3,3 L3,5 L-4,4 L-4,1 Z " fill="#7B7B7B" transform="translate(546,294)"/>
<path d="M0,0 L5,4 L0,5 L-1,9 L-4,8 L-3,3 Z " fill="#515051" transform="translate(536,254)"/>
<path d="M0,0 L4,2 L5,5 L4,7 L0,7 L1,2 Z " fill="#676666" transform="translate(444,245)"/>
<path d="M0,0 L1,2 L1,5 L-4,9 L-5,5 L-3,5 L-2,3 L-4,2 Z " fill="#7F7F7F" transform="translate(401,241)"/>
<path d="M0,0 L2,0 L4,6 L-2,5 L-2,1 Z " fill="#797977" transform="translate(484,234)"/>
<path d="M0,0 L4,0 L2,4 L0,4 L-1,6 L-3,5 L-2,3 L-6,2 Z " fill="#959595" transform="translate(453,220)"/>
<path d="M0,0 L1,0 L2,10 L4,12 L1,13 L0,15 Z " fill="#494949" transform="translate(429,415)"/>
<path d="M0,0 L3,1 L-3,6 L-5,3 Z " fill="#393939" transform="translate(521,383)"/>
<path d="M0,0 L4,2 L5,5 L-3,7 Z " fill="#333333" transform="translate(462,371)"/>
<path d="M0,0 L4,2 L-5,6 L-5,2 L0,2 Z " fill="#404040" transform="translate(552,360)"/>
<path d="M0,0 L5,0 L5,3 L4,5 L1,5 L1,2 L-1,1 Z " fill="#454545" transform="translate(514,336)"/>
<path d="M0,0 L2,1 L1,4 L-2,4 Z M-1,4 L0,7 L-2,8 L-4,11 L-3,5 Z " fill="#3F3F3F" transform="translate(541,330)"/>
<path d="M0,0 L5,0 L3,2 L2,6 L-4,7 L-4,5 L0,3 Z " fill="#4F4F4F" transform="translate(500,318)"/>
<path d="M0,0 L6,0 L6,2 L8,2 L7,4 L4,5 L2,7 L3,2 Z " fill="#4C4C4B" transform="translate(573,293)"/>
<path d="M0,0 L2,0 L2,2 L5,3 L3,7 L1,6 L0,5 L-1,1 Z " fill="#4C4C4C" transform="translate(333,292)"/>
<path d="M0,0 L2,1 L0,5 L-6,7 L-7,5 Z " fill="#7B7B7B" transform="translate(374,257)"/>
<path d="M0,0 L8,3 L8,4 L2,4 L-1,5 L-3,3 L-1,3 Z " fill="#606060" transform="translate(392,258)"/>
<path d="M0,0 L2,0 L3,4 L-1,5 L-4,5 L-6,4 Z " fill="#808080" transform="translate(388,248)"/>
<path d="M0,0 L4,1 L1,7 L-3,6 L-2,4 L-1,3 Z " fill="#595757" transform="translate(538,247)"/>
<path d="M0,0 L3,0 L5,1 L5,3 L7,4 L5,5 L-2,3 L-2,1 Z " fill="#616161" transform="translate(540,244)"/>
<path d="M0,0 L4,1 L2,1 L1,5 L-1,4 L0,2 L-2,3 L-8,3 L-4,1 Z " fill="#9D9D9D" transform="translate(478,214)"/>
<path d="M0,0 L2,0 L2,2 L-6,7 L-7,4 Z " fill="#DFDFDD" transform="translate(677,646)"/>
<path d="M0,0 L2,1 L-3,6 L-5,3 L-5,1 Z " fill="#414141" transform="translate(536,334)"/>
<path d="M0,0 L2,0 L1,4 L-4,6 L-5,2 L0,2 Z " fill="#424241" transform="translate(551,317)"/>
<path d="M0,0 L3,3 L0,3 L2,4 L1,7 L-3,6 L-1,1 Z " fill="#545454" transform="translate(545,306)"/>
<path d="M0,0 L2,0 L1,6 L-2,7 L-3,2 Z " fill="#555555" transform="translate(542,303)"/>
<path d="M0,0 L6,1 L3,5 L-1,4 L2,2 L0,2 Z " fill="#565655" transform="translate(579,293)"/>
<path d="M0,0 L8,0 L5,2 L3,2 L2,4 L-1,3 Z " fill="#606060" transform="translate(590,293)"/>
<path d="M0,0 L2,1 L2,4 L-3,5 L-3,1 Z " fill="#545454" transform="translate(434,289)"/>
<path d="M0,0 L2,0 L2,2 L2,3 L2,5 L-2,7 L-3,1 Z " fill="#7B7B79" transform="translate(429,240)"/>
<path d="M0,0 L2,1 L0,11 L-2,8 L-1,1 Z " fill="#5C5C5B" transform="translate(554,231)"/>
<path d="M0,0 L6,2 L4,6 L0,5 L1,3 L-2,1 Z " fill="#6D6E6B" transform="translate(505,230)"/>
<path d="M0,0 L4,0 L4,4 L1,6 L-1,5 L-1,2 Z " fill="#838481" transform="translate(512,217)"/>
<path d="M0,0 L3,1 L2,10 L0,10 Z " fill="#D3D3D2" transform="translate(559,773)"/>
<path d="M0,0 L2,0 L3,5 L-2,6 Z " fill="#484848" transform="translate(487,335)"/>
<path d="M0,0 L4,1 L6,0 L7,3 L1,5 Z " fill="#454543" transform="translate(496,328)"/>
<path d="M0,0 L2,0 L2,2 L4,3 L-1,3 L-5,5 L-7,3 Z " fill="#737372" transform="translate(521,301)"/>
<path d="M0,0 L4,5 L1,6 L-2,6 Z M4,4 Z " fill="#494949" transform="translate(371,285)"/>
<path d="M0,0 L1,2 L3,2 L4,0 L6,2 L4,2 L2,6 L-1,3 Z " fill="#4D4D4D" transform="translate(447,276)"/>
<path d="M0,0 L2,1 L1,6 L0,4 L-3,4 L-3,1 Z M-5,3 L-3,5 L-5,5 Z " fill="#505050" transform="translate(486,268)"/>
<path d="M0,0 L5,1 L4,5 L1,6 L0,3 Z " fill="#727272" transform="translate(398,248)"/>
<path d="M0,0 L7,2 L7,4 L0,4 L-3,1 Z " fill="#747170" transform="translate(450,243)"/>
<path d="M0,0 L4,5 L-5,5 L-5,3 L-3,3 L-2,1 Z " fill="#707070" transform="translate(517,237)"/>
<path d="M0,0 L3,2 L1,2 L0,8 L-4,7 L-3,5 L-1,5 Z " fill="#737471" transform="translate(495,231)"/>
<path d="M0,0 L7,1 L7,4 L3,5 L3,2 L-1,1 Z " fill="#8A8A8A" transform="translate(504,213)"/>
<path d="M0,0 L3,0 L4,3 L0,5 L-2,6 L-2,1 Z " fill="#C3C4C1" transform="translate(643,796)"/>
<path d="M0,0 L3,2 L1,6 L-2,10 L-1,3 Z " fill="#535353" transform="translate(436,385)"/>
<path d="M0,0 L3,3 L3,5 L-1,5 L-1,3 L-4,2 Z " fill="#3B3B39" transform="translate(675,347)"/>
<path d="M0,0 L4,2 L0,5 L-4,3 Z " fill="#4C4C4C" transform="translate(366,319)"/>
<path d="M0,0 L6,2 L7,5 L2,4 L2,2 L0,2 Z " fill="#585856" transform="translate(514,305)"/>
<path d="M0,0 L7,1 L5,3 L1,4 L-2,2 Z " fill="#575756" transform="translate(611,296)"/>
<path d="M0,0 L1,3 L3,4 L-4,5 L-6,3 L-2,1 L0,2 Z " fill="#5B5B5B" transform="translate(480,276)"/>
<path d="M0,0 L2,1 L1,3 L3,4 L1,4 L1,7 L-2,6 L-1,1 Z " fill="#5D5D5D" transform="translate(426,273)"/>
<path d="M0,0 L5,1 L7,3 L5,3 L4,6 L1,4 L1,3 Z " fill="#646463" transform="translate(468,256)"/>
<path d="M0,0 L2,0 L5,7 L1,6 L-1,2 Z " fill="#686766" transform="translate(457,251)"/>
<path d="M0,0 L7,1 L6,3 L4,3 L4,5 L1,4 L-1,1 Z " fill="#7E7E7E" transform="translate(422,236)"/>
<path d="M0,0 L5,1 L4,4 L-3,5 L-4,3 L0,2 Z " fill="#858585" transform="translate(446,226)"/>
<path d="M0,0 L2,1 L5,1 L4,4 L0,7 L-1,3 Z " fill="#747474" transform="translate(543,221)"/>
<path d="M0,0 L3,0 L1,4 L-3,5 L-4,1 Z " fill="#999999" transform="translate(461,218)"/>
<path d="M0,0 L10,0 L8,1 L7,5 L5,4 L5,2 L0,1 Z " fill="#9B9B9A" transform="translate(490,212)"/>
<path d="M0,0 L0,3 L-1,5 L-5,6 L-5,3 Z " fill="#323232" transform="translate(561,416)"/>
<path d="M0,0 L3,2 L1,8 L-1,9 Z " fill="#3B3B3B" transform="translate(261,415)"/>
<path d="M0,0 L4,1 L0,5 L-1,2 L-4,1 Z " fill="#444444" transform="translate(600,399)"/>
<path d="M0,0 L3,4 L3,6 L-2,7 Z " fill="#454545" transform="translate(439,378)"/>
<path d="M0,0 L6,3 L3,5 L-1,3 Z " fill="#3D3E3C" transform="translate(667,320)"/>
<path d="M0,0 L4,5 L3,7 L-2,6 L-2,4 L0,4 Z " fill="#464744" transform="translate(545,313)"/>
<path d="M0,0 L2,0 L3,3 L-4,5 L-3,1 Z " fill="#4E4E4C" transform="translate(520,308)"/>
<path d="M0,0 L3,0 L4,5 L-1,3 Z M4,2 L6,3 Z " fill="#3E3E3E" transform="translate(334,306)"/>
<path d="M0,0 L2,0 L1,4 L-1,4 L-2,7 L-3,5 L-2,1 Z " fill="#505050" transform="translate(566,305)"/>
<path d="M0,0 L1,2 L3,3 L-2,6 L-2,2 Z " fill="#4D4D4D" transform="translate(373,296)"/>
<path d="M0,0 L6,1 L5,5 L1,6 L2,2 L0,2 Z " fill="#5C5C5C" transform="translate(547,295)"/>
<path d="M0,0 L5,2 L4,4 L-1,4 Z " fill="#535353" transform="translate(341,285)"/>
<path d="M0,0 L3,0 L3,2 L5,3 L4,4 L-1,4 Z " fill="#4E4E4E" transform="translate(482,275)"/>
<path d="M0,0 L5,2 L4,6 L0,4 Z " fill="#5B5B5B" transform="translate(436,273)"/>
<path d="M0,0 L2,1 L0,5 L-3,6 L-4,3 Z " fill="#5C5C5C" transform="translate(432,267)"/>
<path d="M0,0 L4,1 L4,4 L-2,4 Z " fill="#5D5D5D" transform="translate(370,262)"/>
<path d="M0,0 L3,1 L1,6 L-3,4 Z " fill="#636363" transform="translate(497,252)"/>
<path d="M0,0 L2,1 L0,4 L-2,4 L-3,7 L-6,5 Z " fill="#6E6E6E" transform="translate(454,251)"/>
<path d="M0,0 L6,1 L4,4 L0,5 Z " fill="#6B6B6A" transform="translate(514,231)"/>
<path d="M0,0 L2,1 L-1,2 L-1,4 L-5,6 L-6,3 Z " fill="#727270" transform="translate(494,228)"/>
<path d="M0,0 L3,1 L-2,5 L-4,8 L-5,4 L-3,4 L-2,1 Z " fill="#7C7C7B" transform="translate(524,220)"/>
<path d="M0,0 L2,0 L3,4 L1,4 L1,6 L-1,6 L-2,1 Z " fill="#7A7A7A" transform="translate(537,212)"/>
</svg>
