<?xml version="1.0" standalone="no"?>
<!DOCTYPE svg PUBLIC "-//W3C//DTD SVG 20010904//EN"
 "http://www.w3.org/TR/2001/REC-SVG-20010904/DTD/svg10.dtd">
<svg version="1.0" xmlns="http://www.w3.org/2000/svg"
 width="1024.000000pt" height="1024.000000pt" viewBox="0 0 1024.000000 1024.000000"
 preserveAspectRatio="xMidYMid meet">

<g transform="translate(0.000000,1024.000000) scale(0.100000,-0.100000)"
fill="#000000" stroke="none">
<path d="M0 5120 l0 -5120 5120 0 5120 0 0 5120 0 5120 -2480 0 c-2113 0
-2480 -2 -2480 -14 0 -19 -27 -29 -75 -28 l-40 1 40 -9 c22 -5 51 -6 65 -4
l25 4 -25 -11 c-14 -6 -40 -11 -59 -10 -40 2 -69 -17 -49 -32 10 -7 10 -8 -2
-4 -28 10 -45 14 -37 10 17 -10 -7 -23 -44 -23 -32 0 -39 -3 -39 -20 0 -17 -7
-20 -40 -20 -33 0 -40 -3 -40 -20 0 -17 -7 -20 -40 -20 l-40 0 0 -60 0 -60
-40 0 c-33 0 -40 3 -40 20 0 13 -7 20 -20 20 -13 0 -20 -7 -20 -20 0 -17 -7
-20 -40 -20 -33 0 -40 -3 -40 -20 0 -13 -7 -20 -20 -20 -17 0 -20 -7 -20 -40
l0 -40 -40 0 c-33 0 -40 -3 -40 -20 0 -13 -7 -20 -20 -20 -13 0 -20 -7 -20
-20 0 -17 -7 -20 -40 -20 -33 0 -40 -4 -40 -19 0 -22 -40 -36 -53 -18 -6 8
-10 8 -13 2 -3 -7 -30 -9 -69 -7 -61 4 -65 3 -65 -17 0 -18 -6 -21 -40 -21
-33 0 -40 -3 -40 -20 0 -19 -7 -20 -160 -20 -155 0 -160 -1 -160 -20 0 -19 -5
-21 -67 -18 -48 2 -67 7 -65 16 1 9 -2 10 -15 1 -14 -8 -17 -21 -14 -55 l3
-44 -82 0 c-52 0 -79 4 -75 10 3 6 -1 18 -11 27 -16 16 -16 16 -11 -2 4 -11 2
-27 -4 -35 -8 -12 -9 -10 -4 7 8 29 -8 37 -77 34 -53 -2 -58 -1 -58 18 0 20
-6 21 -80 21 -73 0 -80 -2 -80 -20 0 -17 -7 -20 -40 -20 -33 0 -40 3 -40 20 0
17 -7 20 -41 20 -39 0 -41 2 -35 24 4 15 1 26 -7 29 -9 3 -9 7 2 20 7 10 9 17
3 17 -6 0 -12 -6 -15 -12 -3 -9 -8 -10 -15 -3 -6 6 -54 9 -111 7 -92 -3 -101
-5 -101 -23 0 -16 -7 -19 -40 -19 l-40 0 0 60 0 60 -80 0 c-72 0 -80 2 -80 19
0 12 9 21 26 25 27 7 28 33 0 28 -24 -4 -20 13 7 25 21 10 21 11 -5 9 -14 0
-26 -3 -26 -6 4 -52 -2 -60 -42 -60 l-40 0 0 40 0 40 -40 0 c-33 0 -40 -3 -40
-20 0 -13 -7 -20 -20 -20 -13 0 -20 7 -20 20 0 13 -7 20 -19 20 -16 0 -20 9
-23 50 -1 28 1 50 5 50 5 0 1 7 -7 16 -15 14 -17 14 -32 0 -8 -9 -11 -16 -6
-16 4 0 7 -13 4 -30 -4 -29 -5 -30 -63 -30 l-59 0 0 40 c0 40 0 40 -39 40
l-39 0 -4 50 c-2 41 0 49 12 45 8 -2 21 -1 27 3 7 5 -9 8 -37 8 -27 0 -45 -3
-39 -7 7 -4 4 -9 -6 -13 -27 -10 -35 -7 -35 14 0 13 -7 20 -20 20 -13 0 -20 7
-20 20 0 17 -7 20 -40 20 l-40 0 0 40 c0 33 -3 40 -20 40 -13 0 -20 7 -20 20
0 20 -7 20 -920 20 l-920 0 0 -5120z m5280 5020 c0 -5 -4 -10 -10 -10 -5 0
-10 5 -10 10 0 6 5 10 10 10 6 0 10 -4 10 -10z m-3210 -100 c0 -5 -4 -10 -10
-10 -5 0 -10 5 -10 10 0 6 5 10 10 10 6 0 10 -4 10 -10z m-115 -60 c13 -6 15
-9 5 -9 -8 0 -22 4 -30 9 -18 12 -2 12 25 0z m355 -75 c0 -14 -4 -25 -10 -25
-5 0 -10 11 -10 25 0 14 5 25 10 25 6 0 10 -11 10 -25z m10 -85 c0 -17 -7 -20
-40 -20 -33 0 -40 3 -40 20 0 17 7 20 40 20 33 0 40 -3 40 -20z m2070 -180 c0
-5 -4 -10 -10 -10 -5 0 -10 5 -10 10 0 6 5 10 10 10 6 0 10 -4 10 -10z m-1373
-25 c8 -9 13 -19 10 -22 -6 -5 -37 21 -37 31 0 10 11 6 27 -9z m1258 -75 c13
-5 14 -9 5 -9 -8 0 -24 4 -35 9 -13 5 -14 9 -5 9 8 0 24 -4 35 -9z m-355 -45
c0 -25 -14 -33 -25 -15 -3 6 -17 7 -31 4 -20 -5 -24 -2 -24 15 0 18 6 21 40
21 36 0 40 -2 40 -25z m-802 7 c8 -6 2 -9 -18 -9 -20 0 -26 3 -18 9 7 4 15 8
18 8 3 0 11 -4 18 -8z m790 -49 c16 -16 16 -16 -1 -10 -10 4 -23 7 -28 7 -5 0
-9 5 -9 10 0 15 20 12 38 -7z m1077 -1594 c185 -30 394 -141 506 -267 95 -108
184 -282 215 -423 41 -186 43 -355 5 -502 -52 -200 -192 -381 -360 -465 -89
-45 -127 -53 -117 -26 3 9 7 250 7 537 1 287 4 512 6 500 3 -14 9 -20 18 -17
8 3 11 13 7 22 -4 12 1 10 18 -5 22 -21 47 -22 35 -2 -4 5 1 9 9 9 9 0 16 5
16 10 0 6 -4 10 -9 10 -6 0 -13 -4 -16 -10 -3 -5 -12 -10 -18 -10 -7 1 -1 10
13 21 15 13 26 16 28 10 2 -6 9 -8 14 -5 7 4 8 2 4 -4 -11 -17 9 -15 24 3 10
12 10 15 0 15 -8 0 -10 3 -7 6 4 4 14 1 24 -7 15 -12 16 -12 10 4 -4 10 -3 16
1 13 5 -3 19 1 33 8 13 7 31 10 38 8 8 -3 11 0 7 7 -4 6 -2 11 4 11 6 0 8 5 4
13 -5 8 -2 8 9 -2 9 -7 17 -10 17 -6 0 4 7 2 15 -5 8 -7 13 -16 10 -20 -3 -5
0 -12 6 -16 7 -4 9 -3 6 3 -7 12 7 26 37 37 14 5 17 3 12 -10 -5 -14 -4 -15 8
-5 11 9 15 8 20 -5 4 -9 9 -14 12 -11 7 7 -60 128 -113 203 -90 128 -239 243
-366 284 -82 26 -139 -7 -459 -270 -243 -200 -291 -245 -342 -321 -116 -175
-114 -419 5 -598 110 -165 217 -225 919 -517 85 -36 169 -71 185 -78 126 -58
329 -144 635 -270 442 -183 524 -206 735 -206 274 0 464 71 639 238 53 50 55
52 21 12 -101 -118 -214 -197 -340 -239 -116 -38 -195 -51 -325 -51 -228 0
-400 57 -1145 375 -435 186 -535 226 -546 219 -7 -4 -9 -3 -6 3 3 5 -22 21
-56 36 -34 14 -100 42 -147 61 -79 33 -83 33 -33 -2 10 -7 13 -10 7 -7 -7 2
-18 -3 -25 -13 -13 -15 -12 -16 3 -4 14 11 18 10 26 -4 8 -15 9 -15 15 0 5 11
3 15 -5 10 -7 -4 -8 -3 -4 5 11 17 26 3 19 -17 -4 -13 -2 -13 10 3 15 19 16
19 13 -8 -2 -18 2 -31 11 -34 12 -5 12 -7 2 -14 -8 -4 -17 -1 -24 8 -10 13
-14 13 -20 3 -6 -9 -4 -11 5 -5 10 6 12 4 7 -8 -5 -12 0 -14 21 -11 25 5 26 5
8 -14 -11 -14 -14 -22 -6 -27 6 -3 9 -3 8 2 -2 4 2 8 7 8 6 0 9 -4 7 -8 -1 -5
2 -5 8 -2 6 4 9 14 6 22 -4 8 -1 11 5 7 6 -3 8 -17 5 -29 -3 -13 -2 -27 4 -30
5 -3 7 0 4 8 -3 8 0 18 7 23 7 4 10 3 5 -4 -3 -6 -2 -14 4 -17 8 -5 8 -11 0
-20 -13 -15 5 -16 29 -1 10 6 12 5 7 -2 -4 -7 -2 -12 5 -12 9 0 9 -3 0 -14 -8
-10 -9 -16 -1 -21 5 -3 11 2 12 12 0 10 2 24 2 32 1 8 8 16 16 18 12 4 12 3 1
-5 -11 -8 -10 -13 7 -30 l20 -20 -21 -6 -21 -5 22 -24 c12 -13 20 -27 17 -30
-3 -4 1 -3 7 3 7 5 19 10 28 10 12 -1 11 -4 -5 -17 -18 -14 -18 -15 -2 -9 10
3 23 6 28 6 6 0 7 6 3 13 -5 9 -4 9 6 0 11 -10 17 -10 29 0 14 11 14 10 2 -5
-11 -15 -11 -18 0 -19 10 0 11 -2 1 -6 -6 -2 -9 -10 -6 -15 4 -7 2 -8 -5 -4
-6 4 -9 11 -6 16 3 5 1 11 -4 14 -5 3 -11 -3 -14 -14 -3 -11 -2 -19 2 -19 16
2 51 -14 51 -24 0 -6 3 -7 6 -4 4 4 1 13 -6 22 -11 13 -10 15 2 10 8 -3 21
-21 28 -40 13 -32 21 -40 43 -36 4 0 7 -6 7 -14 0 -8 5 -15 11 -15 5 0 8 -4 5
-9 -7 -11 13 -9 32 3 13 8 44 -22 36 -35 -2 -4 3 -12 11 -19 17 -14 39 -4 28
13 -5 8 -2 8 9 0 8 -7 19 -9 23 -5 5 4 5 1 1 -5 -4 -7 -13 -13 -21 -13 -8 0
-16 -4 -19 -8 -3 -5 10 -8 29 -7 20 2 38 -2 42 -9 11 -17 12 -35 2 -42 -14 -8
-11 -21 7 -28 13 -5 14 -3 7 6 -7 9 -5 21 3 38 14 26 15 25 17 -27 2 -30 17
-60 17 -33 0 11 3 11 12 2 8 -8 15 -8 24 -1 8 7 14 6 20 -2 4 -7 3 -9 -3 -6
-17 11 -21 -27 -5 -42 12 -12 13 -11 8 6 -5 17 -2 20 16 18 38 -4 39 -5 33
-15 -3 -5 -1 -10 4 -10 6 0 11 -10 12 -22 0 -22 1 -22 9 -3 8 18 9 18 10 -5 2
-14 2 -28 2 -31 -1 -4 8 -4 20 -1 21 5 21 6 2 13 -11 4 -13 8 -5 8 8 1 24 9
35 19 21 17 21 17 2 -5 -11 -13 -16 -23 -11 -23 4 0 2 -6 -4 -14 -10 -11 -9
-14 1 -12 7 1 19 5 27 10 9 6 21 0 37 -18 27 -29 35 -31 51 -15 8 8 13 8 17 0
4 -6 0 -11 -9 -11 -10 0 -13 -5 -9 -12 5 -8 2 -9 -9 -5 -11 4 -17 1 -17 -8 0
-19 14 -19 33 0 13 13 16 13 21 -1 3 -8 2 -13 -3 -10 -5 3 -12 -1 -15 -10 -5
-12 -2 -15 9 -10 9 3 13 2 10 -4 -8 -13 1 -13 28 1 20 9 20 9 5 -4 -16 -12
-14 -15 19 -28 21 -8 40 -13 44 -12 4 1 9 -4 12 -11 4 -10 -15 -6 -61 14 -482
200 -767 320 -862 360 -63 26 -187 78 -275 115 -571 239 -661 294 -813 495
-153 201 -222 428 -209 679 14 263 106 470 284 642 179 173 374 263 633 293
48 5 202 -3 275 -15z m1160 -314 c283 -77 599 -236 819 -411 124 -100 341
-322 419 -432 151 -211 217 -356 225 -492 10 -197 -69 -360 -241 -496 -45 -35
-84 -64 -88 -64 -3 0 -15 61 -27 136 -12 74 -35 177 -52 227 -42 127 -137 314
-217 427 -86 120 -263 299 -372 375 -110 77 -268 156 -390 196 l-99 33 -7 65
c-10 97 -49 220 -110 355 l-54 118 52 -6 c29 -4 93 -18 142 -31z m-562 -227
c-9 -10 -19 -15 -22 -12 -3 4 0 9 7 11 6 3 10 8 8 12 -3 4 1 8 9 8 13 0 12 -4
-2 -19z m-2161 -218 c-23 -92 -23 -445 0 -545 l17 -70 -96 -95 c-189 -186
-319 -433 -354 -670 -11 -77 -8 -361 5 -417 2 -11 -2 -29 -9 -40 -13 -17 -14
-16 -9 7 l5 25 -13 -22 -13 -23 -13 21 c-11 17 -16 18 -28 8 -8 -7 -12 -19 -9
-27 4 -10 0 -12 -12 -8 -15 6 -15 4 2 -14 10 -11 13 -20 7 -20 -7 0 -15 0 -19
0 -12 0 -11 33 1 48 5 7 5 12 0 11 -19 -3 -34 1 -34 12 0 5 5 7 12 3 7 -4 8
-3 4 5 -11 17 -23 5 -23 -25 0 -18 2 -22 8 -13 6 10 8 7 6 -8 -1 -19 -3 -20
-17 -9 -40 36 -96 24 -67 -14 11 -13 10 -13 -6 -1 -10 8 -16 23 -15 34 2 11
-3 22 -11 25 -10 3 -13 -1 -9 -15 4 -13 0 -19 -14 -19 -11 0 -17 5 -13 14 2 7
1 10 -4 7 -5 -3 -12 -1 -16 5 -3 5 -22 10 -41 10 -33 0 -75 24 -55 32 5 2 3
12 -5 22 -13 19 -14 18 -14 -11 0 -42 10 -64 24 -56 6 4 5 -1 -3 -10 -12 -15
-11 -30 3 -105 9 -48 26 -118 37 -156 11 -37 18 -70 16 -72 -7 -8 -55 118 -77
202 -59 227 -66 534 -16 766 65 302 192 571 393 825 84 107 299 316 402 391
47 34 86 61 87 59 1 -1 -5 -31 -14 -67z m1428 -250 l0 -200 -26 10 c-92 35
-154 116 -154 200 0 52 33 125 66 147 23 14 90 42 107 43 4 0 7 -90 7 -200z
m1435 -300 c100 -50 230 -144 220 -160 -3 -5 0 -12 6 -16 8 -4 9 -3 5 4 -13
21 0 13 25 -15 13 -15 16 -21 6 -14 -15 12 -20 12 -30 1 -7 -7 -7 -10 -2 -8
14 8 38 -19 25 -27 -6 -3 -10 -2 -10 3 0 5 -6 9 -13 9 -9 0 -13 -11 -12 -28 2
-25 0 -26 -23 -18 -22 8 -23 8 -12 -6 10 -12 10 -15 -4 -15 -9 0 -16 -5 -16
-11 0 -5 -5 -7 -11 -3 -8 5 -8 1 0 -13 10 -20 6 -33 -11 -33 -5 0 -6 6 -3 13
4 6 -3 1 -14 -12 -12 -13 -19 -31 -16 -41 3 -10 -5 -26 -19 -39 -20 -19 -28
-21 -45 -12 -17 10 -20 9 -15 -4 4 -9 -1 -22 -12 -31 -14 -10 -15 -13 -3 -8 9
3 19 -1 22 -10 8 -19 -17 -11 -163 51 -63 28 -131 55 -151 62 l-37 12 30 54
c34 63 82 200 98 282 19 97 18 95 53 88 18 -4 77 -28 132 -55z m-1280 -441
c-4 -5 -12 -9 -18 -8 -9 0 -8 2 1 6 6 2 9 10 6 15 -4 7 -2 8 5 4 6 -4 9 -12 6
-17z m64 -65 c4 3 8 -1 8 -9 0 -11 -4 -12 -14 -4 -7 6 -13 17 -12 23 0 7 2 6
6 -2 2 -6 8 -10 12 -8z m87 -137 c3 -21 1 -21 -20 2 -17 19 -17 19 0 17 9 -2
18 -10 20 -19z m-1386 -72 c100 -32 661 -249 805 -311 l100 -43 33 37 33 37
-24 -50 c-25 -51 -150 -258 -427 -710 -200 -326 -438 -686 -344 -520 15 28 43
74 61 103 32 51 32 52 10 52 -52 -1 -162 -31 -220 -62 -36 -19 -92 -63 -134
-105 -108 -109 -156 -221 -169 -402 -30 -404 304 -828 714 -907 129 -25 246
-28 349 -10 191 33 335 107 454 233 130 139 201 292 219 473 5 52 10 462 10
912 l0 816 208 -87 c114 -49 222 -96 240 -105 l33 -17 -4 -842 c-3 -824 -3
-844 -25 -922 -62 -233 -168 -411 -344 -581 -198 -190 -427 -307 -686 -350
-144 -25 -388 -21 -522 7 -396 82 -752 340 -949 689 -67 118 -111 225 -147
360 -47 171 -43 477 6 628 55 168 114 272 227 406 110 131 275 234 468 292 79
24 108 27 235 28 125 1 155 -2 219 -22 40 -13 74 -22 76 -20 1 2 34 56 73 120
l70 117 -111 47 c-470 198 -706 273 -859 274 -64 0 -68 1 -74 26 -4 14 -4 76
-1 137 4 103 24 201 56 281 l11 28 123 -4 c96 -4 140 -11 207 -33z m1540 -19
c0 -3 -4 -8 -10 -11 -5 -3 -10 -1 -10 4 0 6 5 11 10 11 6 0 10 -2 10 -4z m40
-40 c0 -9 -30 -14 -35 -6 -4 6 3 10 14 10 12 0 21 -2 21 -4z m15 -15 c-3 -5
-1 -12 5 -16 5 -3 10 -11 10 -16 0 -6 -7 -3 -16 5 -13 14 -12 36 2 36 3 0 3
-4 -1 -9z m235 -182 c0 -5 -8 -9 -17 -8 -11 0 -13 3 -5 6 6 2 9 10 6 15 -4 7
-2 8 4 4 7 -4 12 -11 12 -17z m2200 -458 c-36 -381 -187 -733 -433 -1013 -237
-269 -506 -425 -858 -499 -86 -17 -142 -21 -319 -23 l-215 -1 1 245 1 245 124
-3 c302 -8 521 45 717 175 89 59 227 202 298 308 67 100 94 151 133 256 l38
100 77 34 c42 18 107 53 144 77 85 55 206 177 257 260 l40 65 3 -56 c2 -31 -2
-107 -8 -170z m-4870 149 c0 -5 -5 -10 -11 -10 -5 0 -7 5 -4 10 3 6 8 10 11
10 2 0 4 -4 4 -10z m-245 -13 c3 -4 2 -5 -2 -2 -3 3 -12 0 -20 -6 -10 -9 -13
-8 -13 0 0 7 -4 9 -10 6 -5 -3 -10 -1 -10 5 0 11 45 9 55 -3z m128 -33 c-3 -8
-10 -14 -16 -14 -6 0 -7 3 -4 7 4 3 2 12 -4 19 -8 9 -5 11 10 7 12 -3 17 -11
14 -19z m2059 -646 c100 -171 144 -352 135 -558 -6 -142 -25 -225 -72 -325
-68 -144 -176 -259 -300 -320 -83 -41 -148 -55 -259 -55 -147 0 -250 40 -359
141 -55 50 -137 166 -137 194 0 7 40 9 113 7 64 -2 139 1 170 8 212 44 390
268 375 473 -4 60 -3 63 51 149 31 48 94 148 141 222 47 75 88 136 92 136 4 0
26 -33 50 -72z"/>
<path d="M5510 7305 c0 -2 7 -8 15 -15 12 -10 15 -10 15 2 0 8 -7 15 -15 15
-8 0 -15 -1 -15 -2z"/>
<path d="M5458 7276 c-22 -16 -23 -23 -4 -23 8 0 14 5 13 11 -1 6 4 10 11 8 8
-1 11 2 7 8 -8 12 -6 12 -27 -4z"/>
<path d="M5499 7263 c-13 -16 -12 -17 4 -4 9 7 17 15 17 17 0 8 -8 3 -21 -13z"/>
<path d="M5180 5850 c-9 -6 -10 -10 -3 -10 6 0 15 5 18 10 8 12 4 12 -15 0z"/>
<path d="M5400 5701 c8 -6 12 -11 7 -11 -4 0 0 -11 9 -25 9 -14 19 -23 22 -20
3 3 -3 14 -14 26 -10 12 -18 24 -16 27 2 4 -2 8 -10 10 -9 2 -8 0 2 -7z"/>
<path d="M5475 5631 c-3 -5 -1 -12 4 -15 5 -4 12 0 15 6 4 7 4 2 2 -11 -5 -22
-4 -23 13 -5 10 11 17 21 14 23 -8 10 -42 10 -48 2z"/>
<path d="M5660 5501 c0 -11 4 -22 9 -25 4 -3 6 6 3 19 -5 30 -12 33 -12 6z"/>
<path d="M5683 5445 c0 -7 6 -11 14 -8 7 3 13 6 13 8 0 2 -6 5 -13 8 -8 3 -14
-1 -14 -8z"/>
<path d="M5790 5424 c0 -3 7 -12 15 -21 18 -18 11 -34 -13 -27 -13 5 -14 4 -3
-4 7 -5 21 -7 31 -5 15 4 16 8 6 29 -10 21 -36 42 -36 28z"/>
<path d="M2605 5341 c-3 -5 -2 -12 3 -15 5 -3 9 1 9 9 0 17 -3 19 -12 6z"/>
<path d="M2786 5278 c3 -5 10 -6 15 -3 13 9 11 12 -6 12 -8 0 -12 -4 -9 -9z"/>
<path d="M6370 6139 c0 -5 5 -7 10 -4 6 3 10 8 10 11 0 2 -4 4 -10 4 -5 0 -10
-5 -10 -11z"/>
<path d="M6347 6133 c-10 -9 -9 -23 1 -23 5 0 9 7 9 15 0 17 -1 18 -10 8z"/>
<path d="M5130 10220 c8 -5 22 -9 30 -9 10 0 8 3 -5 9 -27 12 -43 12 -25 0z"/>
<path d="M5065 10189 l-30 -8 33 3 c28 2 32 0 27 -18 -6 -20 -5 -20 6 -3 15
25 1 35 -36 26z"/>
<path d="M5130 10180 c0 -5 7 -10 15 -10 8 0 15 5 15 10 0 6 -7 10 -15 10 -8
0 -15 -4 -15 -10z"/>
<path d="M4770 10020 c8 -5 22 -9 30 -9 10 0 8 3 -5 9 -27 12 -43 12 -25 0z"/>
<path d="M4490 9820 c8 -5 22 -9 30 -9 10 0 8 3 -5 9 -27 12 -43 12 -25 0z"/>
<path d="M2853 9692 c-1 -22 0 -24 9 -8 6 10 6 22 2 26 -5 5 -10 -3 -11 -18z"/>
<path d="M2890 9700 c8 -5 22 -9 30 -9 10 0 8 3 -5 9 -27 12 -43 12 -25 0z"/>
<path d="M2870 9680 c0 -5 5 -10 10 -10 6 0 10 5 10 10 0 6 -4 10 -10 10 -5 0
-10 -4 -10 -10z"/>
<path d="M3850 9660 c0 -5 5 -10 10 -10 6 0 10 5 10 10 0 6 -4 10 -10 10 -5 0
-10 -4 -10 -10z"/>
<path d="M3408 9583 c12 -2 30 -2 40 0 9 3 -1 5 -23 4 -22 0 -30 -2 -17 -4z"/>
<path d="M3400 9559 c0 -5 9 -9 20 -9 11 0 20 4 20 8 0 4 -9 8 -20 9 -11 1
-20 -2 -20 -8z"/>
</g>
</svg>
